<svg id="e56b8f11-f264-4493-b8b8-59b5d233e33a" data-name="Layer 1" xmlns="http://www.w3.org/2000/svg" viewBox="0 0 1465.33736 222.18387"><defs><style>.fe567f8d-aecb-4ecf-a1c1-f7cc907543bc{fill:#4b7be5;}.b153b107-9665-4817-aeff-faff9dadaa76{fill:#0aa879;}.acb2450a-587c-48bb-a740-8f5ea5fb3c06{fill:#cf3b3b;}.aa34b4c7-3647-4b7b-a715-15b28dd2457b{fill:#fa761d;}.b7297cfd-5b04-4f20-8ff2-bf50d9da8e43{fill:#f473b9;}.ad5a7cbd-4ae7-4773-be3a-e09118c6c9ba{fill:#507299;}.a477cd98-3a69-4595-b767-865b9a972fa2{fill:#f5bc00;}</style></defs><path class="fe567f8d-aecb-4ecf-a1c1-f7cc907543bc" d="M204.71688,78.22051a47.42814,47.42814,0,0,0-7.52768-15.52627,76.51536,76.51536,0,0,0-12.23265-12.46668,84.55562,84.55562,0,0,0-14.58442-9.17449,74.33705,74.33705,0,0,0-15.99576-5.17447,164.92211,164.92211,0,0,0-16.4667-2.11774q-8.82129-1.05744-17.64258-1.41135c-5.88086-.23546-11.76173-.47093-17.64259-.47093-6.11632-.234-11.52625-.234-16.46669-.234-13.64257,0-27.522.46949-41.166,1.64537A343.978,343.978,0,0,0,4.29669,38.46584,2.87306,2.87306,0,0,0,1.94492,41.524a152.751,152.751,0,0,1-.23547,20.70074C1.23852,69.517.7676,76.5737.06264,83.395a2.84687,2.84687,0,0,0,.705,2.35321,4.18775,4.18775,0,0,0,2.3532.94042c11.52626-.47093,23.05252-.705,34.57877-1.17589s23.288-.70639,34.81567-.70639H92.98052c4.939,0,9.644,0,14.58442.23546,5.17447.47093,9.87945.7064,14.1135.94186a86.95589,86.95589,0,0,1,10.35037,1.64681c2.3532.705,3.05816,1.41135,3.29362,1.17589v4.46951c0,3.05816-.23546,5.88086-.47092,8.939H122.85432c-6.82128,0-14.58442.234-23.288.4695s-17.64258.70639-27.28656,1.17588c-9.41.70639-18.349,1.41279-26.5816,2.35321A142.14068,142.14068,0,0,0,24.291,109.97659c-6.58582,1.64681-10.81987,4-12.93761,6.58725a26.75306,26.75306,0,0,0-3.76312,8.939c-.94185,3.52766-1.64681,7.52768-2.3532,11.52626-.4695,4.234-.94042,8.23263-1.17589,11.76172,0,3.76312-.23546,6.82128-.23546,9.17449a42.023,42.023,0,0,0,4,18.34754c2.58723,5.64539,7.29221,10.35037,13.878,13.87946,1.88228,1.17588,5.40994,1.88084,11.05677,2.35177,4.939.47093,10.35037.94186,15.7603,1.17588,5.6454.23547,10.8213.47093,15.76031.47093,5.1759.23547,8.46809.23547,10.35037.23547,20.46528,0,41.166-.7064,61.6313-1.88228,20.22982-1.41135,41.166-2.8227,61.63131-4.705a3.007,3.007,0,0,0,2.58867-2.8227l3.29219-45.63553c1.17732-15.28938,1.64681-30.81565,1.64681-46.34049V81.51414A25.00274,25.00274,0,0,0,204.71688,78.22051ZM82.39469,160.08163h-4.705c-1.88227-.23546-3.76312-.23546-5.64539-.46949-1.88228-.47093-3.76456-.70639-5.40994-1.17732a10.182,10.182,0,0,1-2.3532-1.17589,8.88444,8.88444,0,0,1-1.41135-3.29362q-.7064-2.82126-1.41135-6.35036a31.743,31.743,0,0,1-.94042-6.58725,41.94648,41.94648,0,0,1-.23547-4.939,25.55691,25.55691,0,0,1,.23547-4.23549,13.58057,13.58057,0,0,1,1.17588-3.29219,24.84043,24.84043,0,0,1,6.35179-1.41135c4.70354-.47092,9.87945-.94185,15.76031-1.41134,5.64539-.23547,11.05533-.47093,15.99577-.7064h25.17025c4.46951.23547,8.70356.23547,13.17307.47093v29.8738L126.85434,156.788c-4.94044.70639-9.88088,1.17732-15.05535,1.64681-5.40993.47093-10.35037.94186-15.52627,1.17732C91.33371,160.08163,86.62874,160.08163,82.39469,160.08163Z"/><path class="b153b107-9665-4817-aeff-faff9dadaa76" d="M415.486,4.35656c-7.29221,35.75609-14.81988,71.51218-22.817,106.56188-7.76313,34.81424-15.7603,70.57033-23.99437,105.85549a2.824,2.824,0,0,1-2.8227,2.11631L277.639,220.30159a2.82394,2.82394,0,0,1-2.82269-2.11631c-4.705-19.99579-9.41-39.75467-14.11349-59.515-4.46952-19.52486-9.88088-39.51921-15.76175-59.04407-4.234-14.81988-8.46809-29.63833-12.9376-43.98872-4.705-14.58442-9.17449-29.16884-14.11349-43.75326a3.09222,3.09222,0,0,1,.70495-2.8227,2.60983,2.60983,0,0,1,2.58724-.94042c6.35179.705,12.70358,1.17589,19.28939,1.88084,6.35179.47093,12.93905.7064,19.2894.7064h4a9.73643,9.73643,0,0,0,3.52765-.47093,2.88184,2.88184,0,0,1,3.52909,2.11774c7.29221,22.81705,14.81989,45.871,22.817,67.98166,7.05675,19.99579,14.349,40.2256,21.64117,60.69088,4.46951-11.05533,8.939-21.87663,13.1745-32.932,5.17447-13.17307,10.58441-26.5816,15.76031-39.99014.46949-.94185,1.17588-3.29362,2.58723-6.82271,1.17589-3.76312,2.8227-7.99717,4.46951-12.93761l5.6454-15.28938c1.88228-5.41136,3.52909-10.58583,5.17591-15.05534,1.41134-4.705,3.29219-9.87945,5.40993-15.99577A2.57844,2.57844,0,0,1,370.79232.12251a41.92642,41.92642,0,0,0,5.40994.47093h5.88086C387.49305.8289,392.669.8289,397.608.8289h15.05535a3.265,3.265,0,0,1,2.3532,1.17589A2.736,2.736,0,0,1,415.486,4.35656Z"/><path class="acb2450a-587c-48bb-a740-8f5ea5fb3c06" d="M638.48922,94.45174a150.04475,150.04475,0,0,0-1.64682-17.40711,160.53972,160.53972,0,0,0-3.52909-16.70216q-2.47021-8.4681-6.35179-12.70215c-1.88084-2.11774-5.40993-3.76455-10.34893-5.1759a129.4762,129.4762,0,0,0-15.99721-3.05816c-5.88086-.705-12.46668-1.41135-19.288-1.64682-6.82271-.46949-13.40853-.94042-19.76032-1.17588-6.35179,0-12.23265-.23546-17.40712-.23546-4.94044-.234-8.939-.234-11.52626-.4695-6.35178-.47093-17.40855-.47093-29.4043-.23546-5.88086.23546-12.23265.23546-18.349.705-6.35179.23546-12.23265.70639-17.878,1.17732-5.6454.46949-10.35037,1.17588-14.58442,1.88084-4.46951.94185-7.52767,1.88227-9.40851,3.05816-3.76456,2.58723-6.82272,7.05675-8.70356,13.17307a112.94733,112.94733,0,0,0-4,18.58444,184.13355,184.13355,0,0,0-1.88084,19.28939c0,6.11489-.23547,11.05533-.23547,14.349,0,2.35177,0,5.6454.23547,9.87944,0,4.234.234,8.4681.46949,13.17307,0,4.46952.47093,8.939.70639,12.93761.46949,4.46951.94042,7.52767,1.41135,9.88088a43.4602,43.4602,0,0,0,4.23405,8.93759,63.4873,63.4873,0,0,0,6.11632,8.46953,56.81714,56.81714,0,0,0,7.52768,7.52767,30.40131,30.40131,0,0,0,8.70355,5.17447,27.75441,27.75441,0,0,0,6.11633.94042c2.58723.23546,5.40993.23546,8.46809.47093h14.1135c2.3532,0,7.29221,0,14.58442-.23547s15.76174-.46949,25.40572-.70495,19.76032-.47093,30.34472-.94186c10.8213-.234,20.70074-.705,29.87523-1.41135,9.17449-.46949,16.70216-.94042,23.05251-1.64681,9.17449-.705,11.52626-1.64538,12.70358-2.35177,2.8227-1.88228,5.17447-5.6454,7.05675-11.76172a149.58113,149.58113,0,0,0,4.94044-17.87805c1.17588-6.35035,2.35177-12.46668,3.05672-18.583.7064-5.88086,1.17733-10.11491,1.41135-12.46811a33.08331,33.08331,0,0,0,.23547-4.70354v-4.23549C638.95871,104.80212,638.72324,100.09714,638.48922,94.45174ZM487.46768,87.86449A31.01392,31.01392,0,0,1,489.35,80.80775a9.60155,9.60155,0,0,1,2.58723-3.76312,23.81938,23.81938,0,0,1,4.94044-.94186,64.167,64.167,0,0,1,9.87945-.94042c3.52909-.23546,7.05674-.47093,10.35037-.47093,3.05816-.23546,5.41137-.23546,6.82272-.23546,2.35177,0,5.88086.23546,10.5844.23546,4.94044.23547,9.64541.70639,14.81988,1.41135a61.701,61.701,0,0,1,13.40853,2.8227c3.52909.94186,5.6454,2.3532,6.82272,4a27.87707,27.87707,0,0,1,2.35177,6.35035c.705,2.8227,1.17589,5.64683,1.64681,8.46953.23547,3.05816.705,5.88086.705,8.70356.23547,2.8227.47093,5.40993.47093,7.52767,0,1.64538-.23546,3.99859-.23546,6.82129a50.8863,50.8863,0,0,1-.705,8.23263,43.907,43.907,0,0,1-1.64681,7.9986,9.90025,9.90025,0,0,1-2.11775,4.46951,20.46047,20.46047,0,0,1-7.76313,4.46951,79.21931,79.21931,0,0,1-11.2908,3.05816,104.97391,104.97391,0,0,1-11.76172,1.17589c-3.99858.23546-7.52767.23546-10.35037.23546-1.64681,0-4.46951,0-8.23263-.23546-3.76456-.47093-7.52768-.70639-11.76172-1.41135-3.99859-.70639-7.76314-1.41135-11.29223-2.35177-3.76312-.94186-5.17447-2.11774-5.88086-2.82413,0,0-.94042-1.17589-1.88084-6.11489-.7064-4-1.41135-8.46953-1.88228-13.17307-.47093-4.705-.705-9.41-.94042-13.644s-.47093-7.05675-.47093-8.70356,0-3.76456.23546-6.35179A43.41781,43.41781,0,0,1,487.46768,87.86449Z"/><path class="aa34b4c7-3647-4b7b-a715-15b28dd2457b" d="M848.08246,72.10419a91.99815,91.99815,0,0,1-3.52909,25.40572,2.75724,2.75724,0,0,1-2.35177,2.1163c-.94042,0-3.05817.23547-11.76172.7064-6.35179.23546-13.878.70495-22.583,1.17588-8.70356.47093-18.11207.94042-28.227,1.64681-9.88088.47093-19.05393,1.17589-27.75749,1.88228-8.46953.705-15.52627,1.64681-21.6426,2.35177-6.82128.94042-8.23263,1.64681-8.46809,1.88228a22.1021,22.1021,0,0,0-5.88087,7.99717,30.73832,30.73832,0,0,0-1.88227,10.1149,12.754,12.754,0,0,0,.47093,4,20.58179,20.58179,0,0,0,1.64681,2.8227,35.33288,35.33288,0,0,1,3.99858.705c3.29363.23546,7.05675.47093,10.8213.70639,4.23405.23546,7.76171.23546,11.2908.47093h6.11632c12.93761,0,26.34614-.23547,39.51921-.70639s26.34614-1.41135,39.51921-2.11775a1.78774,1.78774,0,0,1,2.11774.7064,2.40061,2.40061,0,0,1,1.17589,1.88227l2.11631,47.51638a3.06008,3.06008,0,0,1-2.58724,3.05816c-18.583,1.41135-36.932,2.8227-55.27951,4.234-18.58444,1.41135-37.40291,2.11774-55.98591,2.11774H714.9404a49.21679,49.21679,0,0,1-5.64683-.23546c-2.1163,0-3.99858-.23547-5.88086-.23547a35.87313,35.87313,0,0,1-4.46807-.70495c-4-1.17589-7.76314-2.35321-11.76173-3.76456a54.47991,54.47991,0,0,1-11.05676-5.64539,43.51158,43.51158,0,0,1-9.41-7.99717,31.84431,31.84431,0,0,1-5.88086-11.99719,79.62861,79.62861,0,0,1-1.88084-11.29222c-.47093-4.70354-.94186-9.40852-.94186-14.1135-.234-4.94044-.46949-9.644-.46949-14.11349,0-4.705-.23547-8.46953-.23547-11.76172,0-7.05818.23547-13.87946.47093-20.23125a57.38829,57.38829,0,0,1,3.05673-18.11207,43.27633,43.27633,0,0,1,9.64541-15.05535c4.46951-4.46951,10.8213-8.23263,18.81847-11.52626,3.76455-1.64681,9.17449-2.8227,16.4667-3.76455,7.05674-.705,14.34895-1.41135,22.11209-1.88085,7.52767-.47092,15.05535-.70639,21.87663-.94185,7.05675-.23547,12.46668-.23547,16.4667-.23547,12.70214,0,25.87521.23547,38.57879.7064,12.70214.70639,25.63975,1.41134,38.57735,2.35177a2.61251,2.61251,0,0,1,2.58867,2.58867c.705,4.70354,1.17589,9.173,1.41135,13.64256A136.28867,136.28867,0,0,1,848.08246,72.10419Z"/><path class="b7297cfd-5b04-4f20-8ff2-bf50d9da8e43" d="M1073.6729,94.45174c-.23546-5.64539-.94185-11.52625-1.64681-17.40711a160.54231,160.54231,0,0,0-3.52909-16.70216q-2.47022-8.4681-6.35179-12.70215c-1.88084-2.11774-5.40993-3.76455-10.5844-5.1759a114.37144,114.37144,0,0,0-15.99577-3.05816c-5.88086-.705-12.23265-1.41135-19.05393-1.64682-6.82272-.46949-13.40853-.94042-19.76032-1.17588-6.35179,0-12.23265-.23546-17.40712-.23546-4.94044-.234-8.939-.234-11.76172-.4695-6.35179-.47093-17.17309-.47093-29.16884-.23546-6.11633.23546-12.23265.23546-18.349.705-6.35178.23546-12.46667.70639-17.878,1.17732-5.6454.46949-10.58584,1.17588-14.58442,1.88084-4.46951.94185-7.52768,1.88227-9.40852,3.05816-3.76455,2.58723-6.82271,7.05675-8.70356,13.17307a112.93806,112.93806,0,0,0-4.23548,18.58444,182.76513,182.76513,0,0,0-1.64538,19.28939c-.23546,6.11489-.23546,11.05533-.23546,14.349,0,2.35177,0,5.6454.23546,9.87944,0,4.234.234,8.4681.234,13.17307.23547,4.46952.47093,8.939.94186,12.93761.46949,4.46951.94042,7.52767,1.41135,9.88088a41.87466,41.87466,0,0,0,3.99858,8.93759,98.96809,98.96809,0,0,0,6.35179,8.46953,38.04125,38.04125,0,0,0,7.52767,7.52767,30.40149,30.40149,0,0,0,8.70356,5.17447,25.45473,25.45473,0,0,0,6.11633.94042c2.58723.23546,5.40993.23546,8.46809.47093h14.11349c2.35321,0,7.29221,0,14.58442-.23547s15.76174-.46949,25.40572-.70495,19.76033-.47093,30.34473-.94186q16.232-.351,29.63976-1.41135c9.17449-.46949,16.93763-.94042,23.288-1.64681,9.17449-.705,11.52626-1.64538,12.70358-2.35177,2.58723-1.88228,4.939-5.6454,7.05675-11.76172a149.583,149.583,0,0,0,4.94044-17.87805c1.17588-6.35035,2.1163-12.46668,3.05672-18.583.7064-5.88086,1.17732-10.11491,1.17732-12.46811a35.53366,35.53366,0,0,0,.4695-4.70354v-4.23549C1074.1424,104.80212,1073.90693,100.09714,1073.6729,94.45174ZM963.81739,150.43765c-1.41135,0-4.234,0-7.99716-.23546-3.76456-.47093-7.76314-.70639-11.76172-1.41135-3.99859-.70639-7.76314-1.41135-11.29223-2.35177-3.99859-.94186-5.40994-2.11774-5.88086-2.82413-.234,0-1.17589-1.17589-1.88085-6.11489A104.31351,104.31351,0,0,1,923.1223,124.327c-.47093-4.705-.705-9.41-1.17589-13.644-.23546-4.234-.23546-7.05675-.23546-8.70356V95.62763c.23546-2.58723.47093-5.17447.94042-7.76314a22.29917,22.29917,0,0,1,1.88228-7.05674,9.60155,9.60155,0,0,1,2.58723-3.76312s.94186-.47093,4.94044-.94186a64.167,64.167,0,0,1,9.87944-.94042c3.52909-.23546,6.82272-.47093,10.11491-.47093,3.29363-.23546,5.64683-.23546,6.82272-.23546,2.35177,0,6.11632.23546,10.81986.23546,4.705.23547,9.64542.70639,14.58442,1.41135a56.28767,56.28767,0,0,1,13.40854,2.8227c3.52909.94186,5.88086,2.3532,7.05818,4a27.87707,27.87707,0,0,1,2.35177,6.35035c.705,2.8227,1.17588,5.64683,1.64681,8.46953.23547,3.05816.46949,5.88086.705,8.70356s.23546,5.40993.23546,7.52767v6.82129c-.23546,2.58723-.47093,5.40993-.705,8.23263a80.36762,80.36762,0,0,1-1.64682,7.9986,13.18223,13.18223,0,0,1-2.11774,4.46951,22.46686,22.46686,0,0,1-7.76314,4.46951A79.21917,79.21917,0,0,1,986.165,149.0263a103.72257,103.72257,0,0,1-11.99718,1.17589C970.16918,150.43765,966.87556,150.43765,963.81739,150.43765Z"/><path class="ad5a7cbd-4ae7-4773-be3a-e09118c6c9ba" d="M1243.74693,210.18668a3.97345,3.97345,0,0,1-.70639,2.35321,3.50557,3.50557,0,0,1-2.1163.94042c-21.87663,1.64681-43.51923,3.29362-65.1604,4.705s-43.28233,2.8227-65.159,3.99859h-.23546a3.79355,3.79355,0,0,1-2.11774-.7064,4.42508,4.42508,0,0,1-.94043-2.1163c-.70639-34.81424-1.64681-70.0994-2.11774-104.67961-.46949-34.34474-1.64681-69.62991-3.05816-104.67961a2.29026,2.29026,0,0,1,.94186-2.1163,2.13677,2.13677,0,0,1,1.88084-.94186c12.23265-.234,24.4653-.705,36.46248-1.17588,11.76172-.4695,23.99294-1.17589,35.99012-2.11631a2.23342,2.23342,0,0,1,2.35177.94042,2.25485,2.25485,0,0,1,.7064,2.35177q-2.82342,20.466-5.6454,40.932c-1.64681,13.64256-3.05816,27.28656-3.99858,40.93056-.7064,11.52626-1.17732,23.05251-1.64682,34.57877-.47093,10.58584-.94185,20.93621-1.17732,31.522,23.05395.705,45.871.4695,68.68949,1.17589a2.82421,2.82421,0,0,1,2.8227,2.58723Z"/><path class="a477cd98-3a69-4595-b767-865b9a972fa2" d="M1464.86787,94.45174a150.04469,150.04469,0,0,0-1.64681-17.40711,91.295,91.295,0,0,0-3.5291-16.70216q-2.47022-8.4681-6.35178-12.70215c-1.88085-2.11774-5.17447-3.76455-10.35038-5.1759a129.39812,129.39812,0,0,0-15.99576-3.05816c-5.88087-.705-12.46668-1.41135-19.2894-1.64682-6.82128-.46949-13.4071-.94042-19.75889-1.17588-6.35179,0-11.99718-.23546-17.17165-.23546-5.17591-.234-9.17449-.234-11.76172-.4695-6.35179-.47093-17.40856-.47093-29.40431-.23546-5.88086.23546-11.99718.23546-18.349.705-6.35179.23546-12.23265.70639-17.87805,1.17732-5.40993.46949-10.35037,1.17588-14.58442,1.88084a33.60328,33.60328,0,0,0-9.40851,3.05816c-3.76456,2.58723-6.58725,7.05675-8.705,13.17307a144.11666,144.11666,0,0,0-3.99858,18.58444,136.37532,136.37532,0,0,0-1.64681,19.28939c-.23547,6.11489-.23547,11.05533-.23547,14.349v9.87944c0,4.234.23547,8.4681.47093,13.17307.23547,4.46952.47093,8.939.70639,12.93761a56.272,56.272,0,0,0,1.64682,9.88088,32.73059,32.73059,0,0,0,3.99858,8.93759,95.11771,95.11771,0,0,0,6.11633,8.46953,56.81648,56.81648,0,0,0,7.52767,7.52767,33.93574,33.93574,0,0,0,8.70356,5.17447,27.97786,27.97786,0,0,0,6.35035.94042c2.58867.23546,5.41137.23546,8.23407.47093h14.11349c2.58723,0,7.29221,0,14.58442-.23547s15.7603-.46949,25.40572-.70495c9.644-.23547,19.75889-.47093,30.58019-.94186q15.87874-.351,29.63976-1.41135c9.17449-.46949,16.93619-.94042,23.288-1.64681,8.939-.705,11.2908-1.64538,12.46812-2.35177,2.82269-1.88228,5.17446-5.6454,7.29221-11.76172a151.0483,151.0483,0,0,0,4.70354-17.87805,179.49229,179.49229,0,0,0,3.05816-18.583c.70639-5.88086,1.17732-10.11491,1.41135-12.46811a33.0847,33.0847,0,0,0,.23546-4.70354v-4.23549C1465.33736,104.80212,1465.33736,100.09714,1464.86787,94.45174Zm-99.26968,55.75045c-3.99858.23546-7.52767.23546-10.35037.23546-1.64681,0-4.23405,0-7.99716-.23546-3.76456-.47093-7.76314-.70639-11.76173-1.41135-4-.70639-7.9986-1.41135-11.29222-2.35177-3.99859-.94186-5.40994-2.11774-6.11633-2.82413,0,0-.94042-1.17589-1.88084-6.11489a105.90027,105.90027,0,0,1-1.64681-13.17307c-.47093-4.705-.94186-9.41-1.17589-13.644-.23546-4.234-.47093-7.05675-.47093-8.70356s0-3.76456.23547-6.35179a43.4178,43.4178,0,0,1,.705-7.76314,51.001,51.001,0,0,1,1.88228-7.05674,9.60146,9.60146,0,0,1,2.58724-3.76312,31.096,31.096,0,0,1,5.1759-.94186,58.3736,58.3736,0,0,1,9.644-.94042c3.52909-.23546,7.05674-.47093,10.35037-.47093,3.29363-.23546,5.40993-.23546,6.82128-.23546,2.35321,0,5.88086.23546,10.8213.23546,4.705.23547,9.64542.70639,14.58442,1.41135a58.88009,58.88009,0,0,1,13.40854,2.8227c3.52909.94186,5.88086,2.3532,6.82128,4a19.917,19.917,0,0,1,2.3532,6.35035,53.92823,53.92823,0,0,1,1.64682,8.46953c.46949,3.05816.705,5.88086.94042,8.70356,0,2.8227.23546,5.40993.23546,7.52767,0,1.64538,0,3.99859-.23546,6.82129a50.8863,50.8863,0,0,1-.705,8.23263,43.77985,43.77985,0,0,1-1.41135,7.9986,13.13938,13.13938,0,0,1-2.3532,4.46951,20.46051,20.46051,0,0,1-7.76314,4.46951,79.21953,79.21953,0,0,1-11.29079,3.05816A104.97432,104.97432,0,0,1,1365.59819,150.20219Z"/></svg>