<?xml version="1.0" encoding="UTF-8"?><svg id="uuid-e8ffeac1-95fd-4351-a6ad-539a15e8fd6b" xmlns="http://www.w3.org/2000/svg" viewBox="0 0 396.85999 392.69399"><defs><style>.uuid-e32d4e6d-e19f-4dbe-85dd-377096c9d08a{fill:#524a4e;}</style></defs><path class="uuid-e32d4e6d-e19f-4dbe-85dd-377096c9d08a" d="M395.39999,341.21401v-30.89001l-29.13-16.82001v33.06l-27.13998,15.67001v-32.48999l-28.64001,16.53998-27.63-15.95999v-30.31c.85995-.22449,1.45996-1.00122,1.45999-1.89001-.00226-.17224-.02579-.34354-.07001-.51001l26.48999-15.29999,.25-.14001v-33.64998l-28.63,16.53999-28.13995-16.24998-28.13,16.24001-27.64-15.95v-31.91002l28.64-16.53-28.64-16.54001v-33.05998l-28.89,16.67999-.25,.14v31.91l-25.74001-14.86c.04358-.17,.06708-.34453,.07001-.52-.00308-.88773-.60184-1.6628-1.46001-1.88995v-62.79004l27.88-16.1,.25-.15V49.844l-28.88,16.68-.25,.13995v32.49004l-27.63999,15.96-27.14-15.67,27.39-15.81,.25-.15V49.844l-28.88,16.68-.25,.13995v64.4l-25.75-14.85995c.04354-.17001,.06704-.34453,.07-.52-.0031-.88773-.60183-1.6628-1.46-1.89v-30.88l-27.64-15.96,27.14-15.67,.5,.29v-.57l.5-.29-.5-.29V17.934L31.02,2.494c.05169-.16855,.07864-.34371,.08-.52C31.10497,.88877,30.22924,.00499,29.14402,.00002c-1.08523-.00497-1.96901,.87076-1.97397,1.95598-.00409,.89408,.59591,1.6782,1.45996,1.90799v30.31L3.52,48.68399l-3.52,2.03,3.52,2.03,24.61,14.21L3.52,81.164l-2.77,1.6-.25,.15v32.49l-.5,.28,.5,.29v32.49l3.02,1.74001,24.6,14.21001-24.6,14.20999-2.79,1.61-.25,.14v33.64l3.04-1.75,25.84-14.92,.25-.14999v-31.92001l.02,.00999v-33.05998l26.25-15.15c.24749,.24209,.5545,.41457,.89,.5v30.89001l27.64,15.94998-27.39,15.81001-.25,.14999v32.5l-26.22,15.14c-.75781-.77309-1.99885-.78546-2.77193-.02765-.77308,.75781-.78546,1.99884-.02765,2.77193,.24971,.25475,.5642,.43651,.90958,.52573v62.75999l-25.14,14.51999-2.79,1.61002-.25,.14001v33.63998l.04-.01999v31.94l28.14,16.23999v.57999l.5-.29001,.5,.29001v-.57999l27.88-16.10001,.25-.14001v-33.64999l-27.24,15.73001c-.76636-.77045-2.01219-.77374-2.78263-.00739l-.00738,.00739-24.24-13.98999-1.52-.88,1.52-.88,25.14-14.51999v.04001l28.63-16.54001,28.64,16.54001v-33.08002l27.86-16.09,.25-.14001v-30.89c1.04507-.27737,1.66742-1.34941,1.39005-2.39449-.27737-1.04507-1.34942-1.66742-2.39449-1.39005-.85894,.22797-1.45659,1.00586-1.45556,1.89453,.00137,.17627,.02831,.35141,.08,.51994l-26.5,15.28999-.25,.14999v31.88998l-27.12-15.6499v-64.41l27.62-15.94,28.63,16.53v-33.06l26.24-15.14999c.25269,.24037,.56241,.41245,.89999,.5v30.89l26.75,15.44c-.05173,.16852-.07867,.34367-.08,.51994,.00133,.17302,.02829,.34488,.08,.50999l-26.5,15.3-.25,.14v64.94002l-26.09,15.06c-.36348-.51752-.9576-.82391-1.59-.82001-1.08006-.00784-1.96198,.86139-1.96981,1.94144-.00652,.89825,.5997,1.68542,1.46981,1.90857v31.82001l28.12994-16.23999v31.91l13.41,7.73999,15.73,9.07999v-33.63995l-27.61-15.94,27.14999-15.67999,26.25,15.16c-.04425,.16647-.06776,.33777-.07001,.51001-.00284,1.08249,.87239,1.96228,1.95486,1.96512s1.96228-.87238,1.96512-1.95486c.00233-.89178-.59767-1.67276-1.45998-1.90027v-62.79001l27.64-15.96001,27.13007,15.67-27.38,15.81-.25,.14001v32.48999l-.5,.29001,.5,.29001v31.90997l-27.89,16.10001-.25,.14001v33.63998l28.89-16.67001,.25-.14999v-31.89999l27.13,15.66v.58002l.5-.29001,12.89001,7.44,15.75,9.09v-31.45999c.33624-.08905,.64316-.26495,.89001-.51001l26.23999,15.14999v33.06l28.13998-16.25v.01001l15.73999-9.09,13.14999-7.59,.25-.14001v-31.91l25.75,14.87c-.05243,.16495-.07941,.33691-.07999,.51001-.00284,1.08249,.87238,1.96228,1.95486,1.96512,1.08246,.00284,1.96228-.87238,1.96512-1.95483,.00235-.89182-.59769-1.67279-1.45999-1.9003v.00003Zm-112.54001-95.29001l27.13-15.66v31.32999l-26.23999,15.14999c-.24417-.24854-.55212-.42499-.89001-.51001v-30.30997ZM142.17999,67.244l27.13-15.67v31.32999l-27.13,15.67v-31.32999ZM29.66,361.22399c.85999-.22446,1.46001-1.00119,1.46-1.88998-.00057-.1731-.02755-.34506-.08-.51001l25.75-14.87v31.34l-27.13,15.66v-29.73001Zm-26.14-16.10999l23.75,13.70999c-.05169,.16513-.07865,.33698-.08,.51001,.00427,.89059,.60785,1.66663,1.47,1.88998v29.73001l-27.14-15.66v-31.32999l2,1.14999Zm25.09-18.56l-25.09,14.48999-2.04,1.17999v-31.32999l2.04-1.17999,25.09-14.48999v31.32999Zm28.18-16.23001l-27.13,15.66v-31.32999l27.13-15.66v31.32999Zm0-32.48999l-27.13,15.66998v-31.32999l27.13-15.67v31.33Zm0-32.49005l-27.13,15.67004v-29.73c.85999-.22446,1.46001-1.00121,1.46-1.89-.00057-.17308-.02755-.34506-.08-.50999l25.75-14.87001v31.32996Zm29.12,16.82999l26.24-15.14999c.24747,.24211,.55449,.4146,.89,.5v30.31l-27.13,15.67004v-31.33005ZM29.62994,3.86399c.33941-.08295,.65026-.25565,.9-.5l26.24006,15.15v31.33l-27.14-15.67-.00006-30.31ZM3.52,51.594l-1.52-.88,1.52-.88,25.61-14.79,27.14,15.67-26.64,15.38-.5,.28-.5-.28L3.52,51.594Zm-2.02,31.89l2.02-1.17,25.11-14.49v31.32999L3.52,113.65399l-2.02,1.17v-31.34Zm27.11,113.13l-25.09,14.48999-2.04,1.17999v-31.32999l2.04-1.17999,25.09-14.49001v31.33Zm.02-33.06l-25.11-14.50002-2.02-1.17v-31.32999l2.02,1.17,25.11,14.49999v31.33002Zm26.75-47.35l-26.25,15.15L3.52,116.564l-1.52-.88,1.52-.88,10.81-6.23,14.8-8.55,26.25,15.15c-.09326,.337-.09326,.693,0,1.03v.00002Zm1.39-2.41c-.33624,.08907-.64315,.26494-.89,.51l-26.25-15.15v-31.33001l27.14,15.66v30.31001Zm28.14,180.85v.59l.02-.01001v30.76001l-27.14-15.66v-31.32999l27.12,15.64999Zm0-98.03l-27.14,15.67v-31.33l27.14-15.67v31.33Zm0-33.06l-27.14-15.67001v-30.31c.33551-.0854,.64253-.25788,.89-.5l26.25,15.14999v31.33002Zm1-96.31l27.13-15.67v31.32999l-27.13,15.67v-31.32999Zm27.13,145.03999l-27.13-15.67v-31.33l13.56,7.83,13.57,7.84v31.33Zm0-32.49001l-13.57-7.83-13.56-7.83v-31.34l13.56,7.84,13.57,7.83v31.33Zm0-32.49001l-13.57-7.83-13.56-7.83v-31.32999l27.13,15.66v31.32999Zm28.13999,15.22c-.86035,.2261-1.46262,1.00047-1.46999,1.89,.0063,.17586,.03314,.35039,.08,.52l-25.75,14.86v-31.33l15.50999-8.95,11.63-6.72-.00002,29.73Zm0-30.88l-8.88,5.12-18.25999,10.55002v-31.34l27.13999-15.66v31.32999Zm-.05,194.90999l-27.12999,15.67001v-30.09c.85996-.22449,1.45997-1.00122,1.46-1.89001-.00225-.06372-.00893-.1272-.02-.19l25.68994-14.82999,.00005,31.32999Zm28.14,16.82999v31.33005l-12.73-7.35001-14.41-8.32001v-31.32999l27.14,15.66995Zm.03999-33.06l-27.13,15.66v-31.32996l27.13-15.66v31.32996Zm0-32.48999l-27.13,15.67001v-31.32999l27.13-15.67v31.32997Zm0-32.49005l-.49001,.28999-26.63998,15.38008v-31.33l26.24001-15.14999c.2468,.24513,.55373,.42101,.89,.50999l-.00002,30.29993Zm0-34.08c-.33791,.08496-.64586,.26141-.89,.50999l-26.23999-15.15991v-30.31001c.33551-.0854,.64252-.25789,.89-.5l26.24001,15.14999-.00002,30.30994Zm55.78-30.60001l-27.14,15.66-27.13998-15.65993,13.31-7.69,13.83-7.98,27.13998,15.66992Zm-54.78-32.2l27.14-15.67v31.33l-27.13998,15.67007-.00002-31.33008Zm0,33.06006l27.14,15.67v31.33l-25.74998-14.85999c.05096-.16528,.0779-.33704,.08-.50999-.0043-.89058-.60788-1.66658-1.47-1.88995l-.00002-29.74007Zm0,33.52c.34018-.08653,.65096-.26263,.89999-.50999l25.74001,14.86-26.63998,15.38-.00002-29.73001Zm27.14,109.92c-.33788,.08499-.6458,.26144-.88995,.51001l-26.25-15.14999v-31.32999l27.14,15.66-.00005,30.30997Zm0-31.45999l-27.13998-15.66998v-31.33l27.14,15.67-.00002,31.32999Zm.5-32.20001l-27.13998-15.66998,27.14-15.66,.5,.28999v-.00999l26.64,15.38-27.14001,15.66998Zm27.64,114l-27.14,15.66v-31.32999l27.14-15.66v31.32999Zm56.27-95.28998v29.73001l-27.14-15.66v-31.34l25.74998,14.87c-.04422,.16647-.06775,.33777-.07001,.51001,.00003,.88879,.60007,1.6655,1.46002,1.88998Zm-.89999-3.26999l-25.74001-14.85999,26.64-15.38v29.73001c-.34085,.08484-.65207,.26117-.89999,.50998Zm-53.87-31.11l27.13-15.66,27.13998,15.66-26.63998,15.37999-.5,.29001-.5-.29001-26.63-15.37999Zm-.5,32.78001l27.13-15.67001v31.34l-27.13,15.66v-31.32999Zm27.13,80.07001l-27.13-15.67004v-31.32999l27.13,15.66v31.34003Zm-26.63-47.87003l12.32001-7.12,14.81-8.54999,27.13998,15.67001-12.32999,7.12-14.81,8.54999-27.13-15.67001Zm54.76999,.87v29.73001c-.34085,.08484-.65207,.2612-.89999,.51001l-25.74001-14.87,26.64-15.37003Zm-27.14,16.23999l25.74998,14.87c-.09335,.33359-.09335,.6864,0,1.01999l-25.75,14.87,.00002-30.75998Zm27.14,47l-12.75-7.35999-13.89-8.01999,25.74001-14.85999c.25208,.24332,.56171,.41879,.89999,.51001v29.72995Zm29.13-47.57999l27.14001-15.66v31.32001l-27.14001,15.66998v-31.32999Zm-26.73999,16.47c.04355-.16663,.06705-.33783,.07001-.51001-.00003-.88879-.60004-1.6655-1.45999-1.89001v-29.72998l27.13,15.66v31.32999l-25.74002-14.85999Zm53.87994,31.67999l-27.13995,15.66v-31.32001l27.14001-15.67004-.00006,31.33005Zm28.14001-16.23999l-14.39001,8.31-12.75,7.35999v-31.34l27.14001-15.66v31.33002Zm28.13004-17.84c-.33789,.08502-.64584,.26147-.89001,.51001l-26.23999-15.16v-31.33002l27.13,15.67001v30.31Z"/></svg>