<?xml version="1.0" encoding="UTF-8"?><svg id="uuid-b8aec6da-e392-4443-9791-8822a46bde03" xmlns="http://www.w3.org/2000/svg" viewBox="0 0 135.1033 254.7633"><defs><style>.uuid-4801497b-56b1-4be5-888d-abac2b5c206c{fill:#524a4e;}</style></defs><g><g><circle class="uuid-4801497b-56b1-4be5-888d-abac2b5c206c" cx="61.6108" cy="252.5609" r="2.2024"/><circle class="uuid-4801497b-56b1-4be5-888d-abac2b5c206c" cx="61.6108" cy="237.8339" r="2.2024"/><circle class="uuid-4801497b-56b1-4be5-888d-abac2b5c206c" cx="61.6108" cy="223.1069" r="2.2024"/><path class="uuid-4801497b-56b1-4be5-888d-abac2b5c206c" d="M59.4084,208.3799c0,1.2164,.986,2.2025,2.2024,2.2025s2.2024-.9861,2.2024-2.2025c0-1.2163-.986-2.2024-2.2024-2.2024s-2.2024,.9861-2.2024,2.2024Z"/><path class="uuid-4801497b-56b1-4be5-888d-abac2b5c206c" d="M59.4084,193.653c0,1.2163,.986,2.2024,2.2024,2.2024s2.2024-.9861,2.2024-2.2024c0-1.2164-.986-2.2025-2.2024-2.2025s-2.2024,.9861-2.2024,2.2025Z"/><circle class="uuid-4801497b-56b1-4be5-888d-abac2b5c206c" cx="61.6108" cy="178.926" r="2.2024"/><circle class="uuid-4801497b-56b1-4be5-888d-abac2b5c206c" cx="49.7291" cy="252.5609" r="2.2024"/><circle class="uuid-4801497b-56b1-4be5-888d-abac2b5c206c" cx="49.7291" cy="237.8339" r="2.2024"/><circle class="uuid-4801497b-56b1-4be5-888d-abac2b5c206c" cx="49.7291" cy="223.1069" r="2.2024"/><path class="uuid-4801497b-56b1-4be5-888d-abac2b5c206c" d="M47.5267,208.3799c0,1.2164,.9861,2.2025,2.2024,2.2025,1.2164,0,2.2024-.9861,2.2024-2.2025,0-1.2163-.986-2.2024-2.2024-2.2024-1.2163,0-2.2024,.9861-2.2024,2.2024Z"/><path class="uuid-4801497b-56b1-4be5-888d-abac2b5c206c" d="M47.5267,193.653c0,1.2163,.9861,2.2024,2.2024,2.2024,1.2164,0,2.2024-.9861,2.2024-2.2024,0-1.2164-.986-2.2025-2.2024-2.2025-1.2163,0-2.2024,.9861-2.2024,2.2025Z"/><circle class="uuid-4801497b-56b1-4be5-888d-abac2b5c206c" cx="49.7291" cy="178.926" r="2.2024"/><path class="uuid-4801497b-56b1-4be5-888d-abac2b5c206c" d="M35.645,252.5609c0,1.2163,.9861,2.2024,2.2025,2.2024,1.2163,0,2.2024-.9861,2.2024-2.2024,0-1.2164-.9861-2.2024-2.2024-2.2024-1.2164,0-2.2025,.986-2.2025,2.2024Z"/><path class="uuid-4801497b-56b1-4be5-888d-abac2b5c206c" d="M35.645,237.8339c0,1.2164,.9861,2.2024,2.2025,2.2024,1.2163,0,2.2024-.986,2.2024-2.2024s-.9861-2.2024-2.2024-2.2024c-1.2164,0-2.2025,.986-2.2025,2.2024Z"/><path class="uuid-4801497b-56b1-4be5-888d-abac2b5c206c" d="M35.645,223.1069c0,1.2164,.9861,2.2024,2.2025,2.2024,1.2163,0,2.2024-.986,2.2024-2.2024,0-1.2163-.9861-2.2024-2.2024-2.2024-1.2164,0-2.2025,.9861-2.2025,2.2024Z"/><path class="uuid-4801497b-56b1-4be5-888d-abac2b5c206c" d="M35.645,208.3799c0,1.2164,.9861,2.2025,2.2025,2.2025,1.2163,0,2.2024-.9861,2.2024-2.2025,0-1.2163-.9861-2.2024-2.2024-2.2024-1.2164,0-2.2025,.9861-2.2025,2.2024Z"/><path class="uuid-4801497b-56b1-4be5-888d-abac2b5c206c" d="M35.645,193.653c0,1.2163,.9861,2.2024,2.2025,2.2024,1.2163,0,2.2024-.9861,2.2024-2.2024,0-1.2164-.9861-2.2025-2.2024-2.2025-1.2164,0-2.2025,.9861-2.2025,2.2025Z"/><path class="uuid-4801497b-56b1-4be5-888d-abac2b5c206c" d="M35.645,178.926c0,1.2164,.9861,2.2024,2.2025,2.2024,1.2163,0,2.2024-.986,2.2024-2.2024s-.9861-2.2024-2.2024-2.2024c-1.2164,0-2.2025,.986-2.2025,2.2024Z"/><circle class="uuid-4801497b-56b1-4be5-888d-abac2b5c206c" cx="25.9658" cy="252.5609" r="2.2024"/><circle class="uuid-4801497b-56b1-4be5-888d-abac2b5c206c" cx="25.9658" cy="237.8339" r="2.2024"/><circle class="uuid-4801497b-56b1-4be5-888d-abac2b5c206c" cx="25.9658" cy="223.1069" r="2.2024"/><path class="uuid-4801497b-56b1-4be5-888d-abac2b5c206c" d="M23.7634,208.3799c0,1.2164,.986,2.2025,2.2024,2.2025,1.2163,0,2.2024-.9861,2.2024-2.2025,0-1.2163-.9861-2.2024-2.2024-2.2024-1.2164,0-2.2024,.9861-2.2024,2.2024Z"/><path class="uuid-4801497b-56b1-4be5-888d-abac2b5c206c" d="M23.7634,193.653c0,1.2163,.986,2.2024,2.2024,2.2024,1.2163,0,2.2024-.9861,2.2024-2.2024,0-1.2164-.9861-2.2025-2.2024-2.2025-1.2164,0-2.2024,.9861-2.2024,2.2025Z"/><circle class="uuid-4801497b-56b1-4be5-888d-abac2b5c206c" cx="25.9658" cy="178.926" r="2.2024"/><circle class="uuid-4801497b-56b1-4be5-888d-abac2b5c206c" cx="14.0841" cy="252.5609" r="2.2024"/><circle class="uuid-4801497b-56b1-4be5-888d-abac2b5c206c" cx="14.0841" cy="237.8339" r="2.2024"/><circle class="uuid-4801497b-56b1-4be5-888d-abac2b5c206c" cx="14.0841" cy="223.1069" r="2.2024"/><path class="uuid-4801497b-56b1-4be5-888d-abac2b5c206c" d="M11.8817,208.3799c0,1.2164,.9861,2.2025,2.2024,2.2025,1.2164,0,2.2024-.9861,2.2024-2.2025,0-1.2163-.986-2.2024-2.2024-2.2024-1.2163,0-2.2024,.9861-2.2024,2.2024Z"/><path class="uuid-4801497b-56b1-4be5-888d-abac2b5c206c" d="M11.8817,193.653c0,1.2163,.9861,2.2024,2.2024,2.2024,1.2164,0,2.2024-.9861,2.2024-2.2024,0-1.2164-.986-2.2025-2.2024-2.2025-1.2163,0-2.2024,.9861-2.2024,2.2025Z"/><circle class="uuid-4801497b-56b1-4be5-888d-abac2b5c206c" cx="14.0841" cy="178.926" r="2.2024"/><path class="uuid-4801497b-56b1-4be5-888d-abac2b5c206c" d="M0,252.5609c0,1.2163,.9861,2.2024,2.2024,2.2024,1.2164,0,2.2025-.9861,2.2025-2.2024,0-1.2164-.9861-2.2024-2.2025-2.2024-1.2163,0-2.2024,.986-2.2024,2.2024Z"/><path class="uuid-4801497b-56b1-4be5-888d-abac2b5c206c" d="M0,237.8339c0,1.2164,.9861,2.2024,2.2024,2.2024,1.2164,0,2.2025-.986,2.2025-2.2024s-.9861-2.2024-2.2025-2.2024c-1.2163,0-2.2024,.986-2.2024,2.2024Z"/><path class="uuid-4801497b-56b1-4be5-888d-abac2b5c206c" d="M0,223.1069c0,1.2164,.9861,2.2024,2.2024,2.2024,1.2164,0,2.2025-.986,2.2025-2.2024,0-1.2163-.9861-2.2024-2.2025-2.2024-1.2163,0-2.2024,.9861-2.2024,2.2024Z"/><path class="uuid-4801497b-56b1-4be5-888d-abac2b5c206c" d="M0,208.3799c0,1.2164,.9861,2.2025,2.2024,2.2025,1.2164,0,2.2025-.9861,2.2025-2.2025,0-1.2163-.9861-2.2024-2.2025-2.2024-1.2163,0-2.2024,.9861-2.2024,2.2024Z"/><path class="uuid-4801497b-56b1-4be5-888d-abac2b5c206c" d="M0,193.653c0,1.2163,.9861,2.2024,2.2024,2.2024,1.2164,0,2.2025-.9861,2.2025-2.2024,0-1.2164-.9861-2.2025-2.2025-2.2025-1.2163,0-2.2024,.9861-2.2024,2.2025Z"/><path class="uuid-4801497b-56b1-4be5-888d-abac2b5c206c" d="M0,178.926c0,1.2164,.9861,2.2024,2.2024,2.2024,1.2164,0,2.2025-.986,2.2025-2.2024s-.9861-2.2024-2.2025-2.2024c-1.2163,0-2.2024,.986-2.2024,2.2024Z"/></g><g><circle class="uuid-4801497b-56b1-4be5-888d-abac2b5c206c" cx="132.9009" cy="252.5609" r="2.2024"/><circle class="uuid-4801497b-56b1-4be5-888d-abac2b5c206c" cx="132.9009" cy="237.8339" r="2.2024"/><circle class="uuid-4801497b-56b1-4be5-888d-abac2b5c206c" cx="132.9009" cy="223.1069" r="2.2024"/><path class="uuid-4801497b-56b1-4be5-888d-abac2b5c206c" d="M130.6985,208.3799c0,1.2164,.986,2.2025,2.2024,2.2025s2.2024-.9861,2.2024-2.2025c0-1.2163-.986-2.2024-2.2024-2.2024s-2.2024,.9861-2.2024,2.2024Z"/><path class="uuid-4801497b-56b1-4be5-888d-abac2b5c206c" d="M130.6985,193.653c0,1.2163,.986,2.2024,2.2024,2.2024s2.2024-.9861,2.2024-2.2024c0-1.2164-.986-2.2025-2.2024-2.2025s-2.2024,.9861-2.2024,2.2025Z"/><circle class="uuid-4801497b-56b1-4be5-888d-abac2b5c206c" cx="132.9009" cy="178.926" r="2.2024"/><circle class="uuid-4801497b-56b1-4be5-888d-abac2b5c206c" cx="121.0192" cy="252.5609" r="2.2024"/><circle class="uuid-4801497b-56b1-4be5-888d-abac2b5c206c" cx="121.0192" cy="237.8339" r="2.2024"/><circle class="uuid-4801497b-56b1-4be5-888d-abac2b5c206c" cx="121.0192" cy="223.1069" r="2.2024"/><path class="uuid-4801497b-56b1-4be5-888d-abac2b5c206c" d="M118.8168,208.3799c0,1.2164,.9861,2.2025,2.2024,2.2025,1.2164,0,2.2024-.9861,2.2024-2.2025,0-1.2163-.986-2.2024-2.2024-2.2024-1.2163,0-2.2024,.9861-2.2024,2.2024Z"/><path class="uuid-4801497b-56b1-4be5-888d-abac2b5c206c" d="M118.8168,193.653c0,1.2163,.9861,2.2024,2.2024,2.2024,1.2164,0,2.2024-.9861,2.2024-2.2024,0-1.2164-.986-2.2025-2.2024-2.2025-1.2163,0-2.2024,.9861-2.2024,2.2025Z"/><circle class="uuid-4801497b-56b1-4be5-888d-abac2b5c206c" cx="121.0192" cy="178.926" r="2.2024"/><path class="uuid-4801497b-56b1-4be5-888d-abac2b5c206c" d="M106.9351,252.5609c0,1.2163,.9861,2.2024,2.2025,2.2024,1.2163,0,2.2024-.9861,2.2024-2.2024,0-1.2164-.9861-2.2024-2.2024-2.2024-1.2164,0-2.2025,.986-2.2025,2.2024Z"/><path class="uuid-4801497b-56b1-4be5-888d-abac2b5c206c" d="M106.9351,237.8339c0,1.2164,.9861,2.2024,2.2025,2.2024,1.2163,0,2.2024-.986,2.2024-2.2024s-.9861-2.2024-2.2024-2.2024c-1.2164,0-2.2025,.986-2.2025,2.2024Z"/><path class="uuid-4801497b-56b1-4be5-888d-abac2b5c206c" d="M106.9351,223.1069c0,1.2164,.9861,2.2024,2.2025,2.2024,1.2163,0,2.2024-.986,2.2024-2.2024,0-1.2163-.9861-2.2024-2.2024-2.2024-1.2164,0-2.2025,.9861-2.2025,2.2024Z"/><path class="uuid-4801497b-56b1-4be5-888d-abac2b5c206c" d="M106.9351,208.3799c0,1.2164,.9861,2.2025,2.2025,2.2025,1.2163,0,2.2024-.9861,2.2024-2.2025,0-1.2163-.9861-2.2024-2.2024-2.2024-1.2164,0-2.2025,.9861-2.2025,2.2024Z"/><path class="uuid-4801497b-56b1-4be5-888d-abac2b5c206c" d="M106.9351,193.653c0,1.2163,.9861,2.2024,2.2025,2.2024,1.2163,0,2.2024-.9861,2.2024-2.2024,0-1.2164-.9861-2.2025-2.2024-2.2025-1.2164,0-2.2025,.9861-2.2025,2.2025Z"/><path class="uuid-4801497b-56b1-4be5-888d-abac2b5c206c" d="M106.9351,178.926c0,1.2164,.9861,2.2024,2.2025,2.2024,1.2163,0,2.2024-.986,2.2024-2.2024s-.9861-2.2024-2.2024-2.2024c-1.2164,0-2.2025,.986-2.2025,2.2024Z"/><circle class="uuid-4801497b-56b1-4be5-888d-abac2b5c206c" cx="97.2559" cy="252.5609" r="2.2024"/><circle class="uuid-4801497b-56b1-4be5-888d-abac2b5c206c" cx="97.2559" cy="237.8339" r="2.2024"/><circle class="uuid-4801497b-56b1-4be5-888d-abac2b5c206c" cx="97.2559" cy="223.1069" r="2.2024"/><path class="uuid-4801497b-56b1-4be5-888d-abac2b5c206c" d="M95.0535,208.3799c0,1.2164,.986,2.2025,2.2024,2.2025,1.2163,0,2.2024-.9861,2.2024-2.2025,0-1.2163-.9861-2.2024-2.2024-2.2024-1.2164,0-2.2024,.9861-2.2024,2.2024Z"/><path class="uuid-4801497b-56b1-4be5-888d-abac2b5c206c" d="M95.0535,193.653c0,1.2163,.986,2.2024,2.2024,2.2024,1.2163,0,2.2024-.9861,2.2024-2.2024,0-1.2164-.9861-2.2025-2.2024-2.2025-1.2164,0-2.2024,.9861-2.2024,2.2025Z"/><circle class="uuid-4801497b-56b1-4be5-888d-abac2b5c206c" cx="97.2559" cy="178.926" r="2.2024"/><circle class="uuid-4801497b-56b1-4be5-888d-abac2b5c206c" cx="85.3742" cy="252.5609" r="2.2024"/><circle class="uuid-4801497b-56b1-4be5-888d-abac2b5c206c" cx="85.3742" cy="237.8339" r="2.2024"/><circle class="uuid-4801497b-56b1-4be5-888d-abac2b5c206c" cx="85.3742" cy="223.1069" r="2.2024"/><path class="uuid-4801497b-56b1-4be5-888d-abac2b5c206c" d="M83.1718,208.3799c0,1.2164,.9861,2.2025,2.2024,2.2025,1.2164,0,2.2024-.9861,2.2024-2.2025,0-1.2163-.986-2.2024-2.2024-2.2024-1.2163,0-2.2024,.9861-2.2024,2.2024Z"/><path class="uuid-4801497b-56b1-4be5-888d-abac2b5c206c" d="M83.1718,193.653c0,1.2163,.9861,2.2024,2.2024,2.2024,1.2164,0,2.2024-.9861,2.2024-2.2024,0-1.2164-.986-2.2025-2.2024-2.2025-1.2163,0-2.2024,.9861-2.2024,2.2025Z"/><circle class="uuid-4801497b-56b1-4be5-888d-abac2b5c206c" cx="85.3742" cy="178.926" r="2.2024"/><path class="uuid-4801497b-56b1-4be5-888d-abac2b5c206c" d="M71.2901,252.5609c0,1.2163,.9861,2.2024,2.2024,2.2024,1.2164,0,2.2025-.9861,2.2025-2.2024,0-1.2164-.9861-2.2024-2.2025-2.2024-1.2163,0-2.2024,.986-2.2024,2.2024Z"/><path class="uuid-4801497b-56b1-4be5-888d-abac2b5c206c" d="M71.2901,237.8339c0,1.2164,.9861,2.2024,2.2024,2.2024,1.2164,0,2.2025-.986,2.2025-2.2024s-.9861-2.2024-2.2025-2.2024c-1.2163,0-2.2024,.986-2.2024,2.2024Z"/><path class="uuid-4801497b-56b1-4be5-888d-abac2b5c206c" d="M71.2901,223.1069c0,1.2164,.9861,2.2024,2.2024,2.2024,1.2164,0,2.2025-.986,2.2025-2.2024,0-1.2163-.9861-2.2024-2.2025-2.2024-1.2163,0-2.2024,.9861-2.2024,2.2024Z"/><path class="uuid-4801497b-56b1-4be5-888d-abac2b5c206c" d="M71.2901,208.3799c0,1.2164,.9861,2.2025,2.2024,2.2025,1.2164,0,2.2025-.9861,2.2025-2.2025,0-1.2163-.9861-2.2024-2.2025-2.2024-1.2163,0-2.2024,.9861-2.2024,2.2024Z"/><path class="uuid-4801497b-56b1-4be5-888d-abac2b5c206c" d="M71.2901,193.653c0,1.2163,.9861,2.2024,2.2024,2.2024,1.2164,0,2.2025-.9861,2.2025-2.2024,0-1.2164-.9861-2.2025-2.2025-2.2025-1.2163,0-2.2024,.9861-2.2024,2.2025Z"/><path class="uuid-4801497b-56b1-4be5-888d-abac2b5c206c" d="M71.2901,178.926c0,1.2164,.9861,2.2024,2.2024,2.2024,1.2164,0,2.2025-.986,2.2025-2.2024s-.9861-2.2024-2.2025-2.2024c-1.2163,0-2.2024,.986-2.2024,2.2024Z"/></g></g><g><g><circle class="uuid-4801497b-56b1-4be5-888d-abac2b5c206c" cx="61.6108" cy="164.1991" r="2.2024"/><circle class="uuid-4801497b-56b1-4be5-888d-abac2b5c206c" cx="61.6108" cy="149.4721" r="2.2024"/><circle class="uuid-4801497b-56b1-4be5-888d-abac2b5c206c" cx="61.6108" cy="134.7451" r="2.2024"/><path class="uuid-4801497b-56b1-4be5-888d-abac2b5c206c" d="M59.4084,120.0181c0,1.2164,.986,2.2025,2.2024,2.2025s2.2024-.9861,2.2024-2.2025c0-1.2163-.986-2.2024-2.2024-2.2024s-2.2024,.9861-2.2024,2.2024Z"/><path class="uuid-4801497b-56b1-4be5-888d-abac2b5c206c" d="M59.4084,105.2912c0,1.2163,.986,2.2024,2.2024,2.2024s2.2024-.9861,2.2024-2.2024c0-1.2164-.986-2.2025-2.2024-2.2025s-2.2024,.9861-2.2024,2.2025Z"/><circle class="uuid-4801497b-56b1-4be5-888d-abac2b5c206c" cx="61.6108" cy="90.5642" r="2.2024"/><circle class="uuid-4801497b-56b1-4be5-888d-abac2b5c206c" cx="49.7291" cy="164.1991" r="2.2024"/><circle class="uuid-4801497b-56b1-4be5-888d-abac2b5c206c" cx="49.7291" cy="149.4721" r="2.2024"/><circle class="uuid-4801497b-56b1-4be5-888d-abac2b5c206c" cx="49.7291" cy="134.7451" r="2.2024"/><path class="uuid-4801497b-56b1-4be5-888d-abac2b5c206c" d="M47.5267,120.0181c0,1.2164,.9861,2.2025,2.2024,2.2025,1.2164,0,2.2024-.9861,2.2024-2.2025,0-1.2163-.986-2.2024-2.2024-2.2024-1.2163,0-2.2024,.9861-2.2024,2.2024Z"/><path class="uuid-4801497b-56b1-4be5-888d-abac2b5c206c" d="M47.5267,105.2912c0,1.2163,.9861,2.2024,2.2024,2.2024,1.2164,0,2.2024-.9861,2.2024-2.2024,0-1.2164-.986-2.2025-2.2024-2.2025-1.2163,0-2.2024,.9861-2.2024,2.2025Z"/><circle class="uuid-4801497b-56b1-4be5-888d-abac2b5c206c" cx="49.7291" cy="90.5642" r="2.2024"/><path class="uuid-4801497b-56b1-4be5-888d-abac2b5c206c" d="M35.645,164.1991c0,1.2163,.9861,2.2024,2.2025,2.2024,1.2163,0,2.2024-.9861,2.2024-2.2024,0-1.2164-.9861-2.2024-2.2024-2.2024-1.2164,0-2.2025,.986-2.2025,2.2024Z"/><path class="uuid-4801497b-56b1-4be5-888d-abac2b5c206c" d="M35.645,149.4721c0,1.2164,.9861,2.2024,2.2025,2.2024,1.2163,0,2.2024-.986,2.2024-2.2024s-.9861-2.2024-2.2024-2.2024c-1.2164,0-2.2025,.986-2.2025,2.2024Z"/><path class="uuid-4801497b-56b1-4be5-888d-abac2b5c206c" d="M35.645,134.7451c0,1.2164,.9861,2.2024,2.2025,2.2024,1.2163,0,2.2024-.986,2.2024-2.2024,0-1.2163-.9861-2.2024-2.2024-2.2024-1.2164,0-2.2025,.9861-2.2025,2.2024Z"/><path class="uuid-4801497b-56b1-4be5-888d-abac2b5c206c" d="M35.645,120.0181c0,1.2164,.9861,2.2025,2.2025,2.2025,1.2163,0,2.2024-.9861,2.2024-2.2025,0-1.2163-.9861-2.2024-2.2024-2.2024-1.2164,0-2.2025,.9861-2.2025,2.2024Z"/><path class="uuid-4801497b-56b1-4be5-888d-abac2b5c206c" d="M35.645,105.2912c0,1.2163,.9861,2.2024,2.2025,2.2024,1.2163,0,2.2024-.9861,2.2024-2.2024,0-1.2164-.9861-2.2025-2.2024-2.2025-1.2164,0-2.2025,.9861-2.2025,2.2025Z"/><path class="uuid-4801497b-56b1-4be5-888d-abac2b5c206c" d="M35.645,90.5642c0,1.2164,.9861,2.2024,2.2025,2.2024,1.2163,0,2.2024-.986,2.2024-2.2024s-.9861-2.2024-2.2024-2.2024c-1.2164,0-2.2025,.986-2.2025,2.2024Z"/><circle class="uuid-4801497b-56b1-4be5-888d-abac2b5c206c" cx="25.9658" cy="164.1991" r="2.2024"/><circle class="uuid-4801497b-56b1-4be5-888d-abac2b5c206c" cx="25.9658" cy="149.4721" r="2.2024"/><circle class="uuid-4801497b-56b1-4be5-888d-abac2b5c206c" cx="25.9658" cy="134.7451" r="2.2024"/><path class="uuid-4801497b-56b1-4be5-888d-abac2b5c206c" d="M23.7634,120.0181c0,1.2164,.986,2.2025,2.2024,2.2025,1.2163,0,2.2024-.9861,2.2024-2.2025,0-1.2163-.9861-2.2024-2.2024-2.2024-1.2164,0-2.2024,.9861-2.2024,2.2024Z"/><path class="uuid-4801497b-56b1-4be5-888d-abac2b5c206c" d="M23.7634,105.2912c0,1.2163,.986,2.2024,2.2024,2.2024,1.2163,0,2.2024-.9861,2.2024-2.2024,0-1.2164-.9861-2.2025-2.2024-2.2025-1.2164,0-2.2024,.9861-2.2024,2.2025Z"/><circle class="uuid-4801497b-56b1-4be5-888d-abac2b5c206c" cx="25.9658" cy="90.5642" r="2.2024"/><circle class="uuid-4801497b-56b1-4be5-888d-abac2b5c206c" cx="14.0841" cy="164.1991" r="2.2024"/><circle class="uuid-4801497b-56b1-4be5-888d-abac2b5c206c" cx="14.0841" cy="149.4721" r="2.2024"/><circle class="uuid-4801497b-56b1-4be5-888d-abac2b5c206c" cx="14.0841" cy="134.7451" r="2.2024"/><path class="uuid-4801497b-56b1-4be5-888d-abac2b5c206c" d="M11.8817,120.0181c0,1.2164,.9861,2.2025,2.2024,2.2025,1.2164,0,2.2024-.9861,2.2024-2.2025,0-1.2163-.986-2.2024-2.2024-2.2024-1.2163,0-2.2024,.9861-2.2024,2.2024Z"/><path class="uuid-4801497b-56b1-4be5-888d-abac2b5c206c" d="M11.8817,105.2912c0,1.2163,.9861,2.2024,2.2024,2.2024,1.2164,0,2.2024-.9861,2.2024-2.2024,0-1.2164-.986-2.2025-2.2024-2.2025-1.2163,0-2.2024,.9861-2.2024,2.2025Z"/><circle class="uuid-4801497b-56b1-4be5-888d-abac2b5c206c" cx="14.0841" cy="90.5642" r="2.2024"/><path class="uuid-4801497b-56b1-4be5-888d-abac2b5c206c" d="M0,164.1991c0,1.2163,.9861,2.2024,2.2024,2.2024,1.2164,0,2.2025-.9861,2.2025-2.2024,0-1.2164-.9861-2.2024-2.2025-2.2024-1.2163,0-2.2024,.986-2.2024,2.2024Z"/><path class="uuid-4801497b-56b1-4be5-888d-abac2b5c206c" d="M0,149.4721c0,1.2164,.9861,2.2024,2.2024,2.2024,1.2164,0,2.2025-.986,2.2025-2.2024s-.9861-2.2024-2.2025-2.2024c-1.2163,0-2.2024,.986-2.2024,2.2024Z"/><path class="uuid-4801497b-56b1-4be5-888d-abac2b5c206c" d="M0,134.7451c0,1.2164,.9861,2.2024,2.2024,2.2024,1.2164,0,2.2025-.986,2.2025-2.2024,0-1.2163-.9861-2.2024-2.2025-2.2024-1.2163,0-2.2024,.9861-2.2024,2.2024Z"/><path class="uuid-4801497b-56b1-4be5-888d-abac2b5c206c" d="M0,120.0181c0,1.2164,.9861,2.2025,2.2024,2.2025,1.2164,0,2.2025-.9861,2.2025-2.2025,0-1.2163-.9861-2.2024-2.2025-2.2024-1.2163,0-2.2024,.9861-2.2024,2.2024Z"/><path class="uuid-4801497b-56b1-4be5-888d-abac2b5c206c" d="M0,105.2912c0,1.2163,.9861,2.2024,2.2024,2.2024,1.2164,0,2.2025-.9861,2.2025-2.2024,0-1.2164-.9861-2.2025-2.2025-2.2025-1.2163,0-2.2024,.9861-2.2024,2.2025Z"/><path class="uuid-4801497b-56b1-4be5-888d-abac2b5c206c" d="M0,90.5642c0,1.2164,.9861,2.2024,2.2024,2.2024,1.2164,0,2.2025-.986,2.2025-2.2024s-.9861-2.2024-2.2025-2.2024c-1.2163,0-2.2024,.986-2.2024,2.2024Z"/></g><g><circle class="uuid-4801497b-56b1-4be5-888d-abac2b5c206c" cx="132.9009" cy="164.1991" r="2.2024"/><circle class="uuid-4801497b-56b1-4be5-888d-abac2b5c206c" cx="132.9009" cy="149.4721" r="2.2024"/><circle class="uuid-4801497b-56b1-4be5-888d-abac2b5c206c" cx="132.9009" cy="134.7451" r="2.2024"/><path class="uuid-4801497b-56b1-4be5-888d-abac2b5c206c" d="M130.6985,120.0181c0,1.2164,.986,2.2025,2.2024,2.2025s2.2024-.9861,2.2024-2.2025c0-1.2163-.986-2.2024-2.2024-2.2024s-2.2024,.9861-2.2024,2.2024Z"/><path class="uuid-4801497b-56b1-4be5-888d-abac2b5c206c" d="M130.6985,105.2912c0,1.2163,.986,2.2024,2.2024,2.2024s2.2024-.9861,2.2024-2.2024c0-1.2164-.986-2.2025-2.2024-2.2025s-2.2024,.9861-2.2024,2.2025Z"/><circle class="uuid-4801497b-56b1-4be5-888d-abac2b5c206c" cx="132.9009" cy="90.5642" r="2.2024"/><circle class="uuid-4801497b-56b1-4be5-888d-abac2b5c206c" cx="121.0192" cy="164.1991" r="2.2024"/><circle class="uuid-4801497b-56b1-4be5-888d-abac2b5c206c" cx="121.0192" cy="149.4721" r="2.2024"/><circle class="uuid-4801497b-56b1-4be5-888d-abac2b5c206c" cx="121.0192" cy="134.7451" r="2.2024"/><path class="uuid-4801497b-56b1-4be5-888d-abac2b5c206c" d="M118.8168,120.0181c0,1.2164,.9861,2.2025,2.2024,2.2025,1.2164,0,2.2024-.9861,2.2024-2.2025,0-1.2163-.986-2.2024-2.2024-2.2024-1.2163,0-2.2024,.9861-2.2024,2.2024Z"/><path class="uuid-4801497b-56b1-4be5-888d-abac2b5c206c" d="M118.8168,105.2912c0,1.2163,.9861,2.2024,2.2024,2.2024,1.2164,0,2.2024-.9861,2.2024-2.2024,0-1.2164-.986-2.2025-2.2024-2.2025-1.2163,0-2.2024,.9861-2.2024,2.2025Z"/><circle class="uuid-4801497b-56b1-4be5-888d-abac2b5c206c" cx="121.0192" cy="90.5642" r="2.2024"/><path class="uuid-4801497b-56b1-4be5-888d-abac2b5c206c" d="M106.9351,164.1991c0,1.2163,.9861,2.2024,2.2025,2.2024,1.2163,0,2.2024-.9861,2.2024-2.2024,0-1.2164-.9861-2.2024-2.2024-2.2024-1.2164,0-2.2025,.986-2.2025,2.2024Z"/><path class="uuid-4801497b-56b1-4be5-888d-abac2b5c206c" d="M106.9351,149.4721c0,1.2164,.9861,2.2024,2.2025,2.2024,1.2163,0,2.2024-.986,2.2024-2.2024s-.9861-2.2024-2.2024-2.2024c-1.2164,0-2.2025,.986-2.2025,2.2024Z"/><path class="uuid-4801497b-56b1-4be5-888d-abac2b5c206c" d="M106.9351,134.7451c0,1.2164,.9861,2.2024,2.2025,2.2024,1.2163,0,2.2024-.986,2.2024-2.2024,0-1.2163-.9861-2.2024-2.2024-2.2024-1.2164,0-2.2025,.9861-2.2025,2.2024Z"/><path class="uuid-4801497b-56b1-4be5-888d-abac2b5c206c" d="M106.9351,120.0181c0,1.2164,.9861,2.2025,2.2025,2.2025,1.2163,0,2.2024-.9861,2.2024-2.2025,0-1.2163-.9861-2.2024-2.2024-2.2024-1.2164,0-2.2025,.9861-2.2025,2.2024Z"/><path class="uuid-4801497b-56b1-4be5-888d-abac2b5c206c" d="M106.9351,105.2912c0,1.2163,.9861,2.2024,2.2025,2.2024,1.2163,0,2.2024-.9861,2.2024-2.2024,0-1.2164-.9861-2.2025-2.2024-2.2025-1.2164,0-2.2025,.9861-2.2025,2.2025Z"/><path class="uuid-4801497b-56b1-4be5-888d-abac2b5c206c" d="M106.9351,90.5642c0,1.2164,.9861,2.2024,2.2025,2.2024,1.2163,0,2.2024-.986,2.2024-2.2024s-.9861-2.2024-2.2024-2.2024c-1.2164,0-2.2025,.986-2.2025,2.2024Z"/><circle class="uuid-4801497b-56b1-4be5-888d-abac2b5c206c" cx="97.2559" cy="164.1991" r="2.2024"/><circle class="uuid-4801497b-56b1-4be5-888d-abac2b5c206c" cx="97.2559" cy="149.4721" r="2.2024"/><circle class="uuid-4801497b-56b1-4be5-888d-abac2b5c206c" cx="97.2559" cy="134.7451" r="2.2024"/><path class="uuid-4801497b-56b1-4be5-888d-abac2b5c206c" d="M95.0535,120.0181c0,1.2164,.986,2.2025,2.2024,2.2025,1.2163,0,2.2024-.9861,2.2024-2.2025,0-1.2163-.9861-2.2024-2.2024-2.2024-1.2164,0-2.2024,.9861-2.2024,2.2024Z"/><path class="uuid-4801497b-56b1-4be5-888d-abac2b5c206c" d="M95.0535,105.2912c0,1.2163,.986,2.2024,2.2024,2.2024,1.2163,0,2.2024-.9861,2.2024-2.2024,0-1.2164-.9861-2.2025-2.2024-2.2025-1.2164,0-2.2024,.9861-2.2024,2.2025Z"/><circle class="uuid-4801497b-56b1-4be5-888d-abac2b5c206c" cx="97.2559" cy="90.5642" r="2.2024"/><circle class="uuid-4801497b-56b1-4be5-888d-abac2b5c206c" cx="85.3742" cy="164.1991" r="2.2024"/><circle class="uuid-4801497b-56b1-4be5-888d-abac2b5c206c" cx="85.3742" cy="149.4721" r="2.2024"/><circle class="uuid-4801497b-56b1-4be5-888d-abac2b5c206c" cx="85.3742" cy="134.7451" r="2.2024"/><path class="uuid-4801497b-56b1-4be5-888d-abac2b5c206c" d="M83.1718,120.0181c0,1.2164,.9861,2.2025,2.2024,2.2025,1.2164,0,2.2024-.9861,2.2024-2.2025,0-1.2163-.986-2.2024-2.2024-2.2024-1.2163,0-2.2024,.9861-2.2024,2.2024Z"/><path class="uuid-4801497b-56b1-4be5-888d-abac2b5c206c" d="M83.1718,105.2912c0,1.2163,.9861,2.2024,2.2024,2.2024,1.2164,0,2.2024-.9861,2.2024-2.2024,0-1.2164-.986-2.2025-2.2024-2.2025-1.2163,0-2.2024,.9861-2.2024,2.2025Z"/><circle class="uuid-4801497b-56b1-4be5-888d-abac2b5c206c" cx="85.3742" cy="90.5642" r="2.2024"/><path class="uuid-4801497b-56b1-4be5-888d-abac2b5c206c" d="M71.2901,164.1991c0,1.2163,.9861,2.2024,2.2024,2.2024,1.2164,0,2.2025-.9861,2.2025-2.2024,0-1.2164-.9861-2.2024-2.2025-2.2024-1.2163,0-2.2024,.986-2.2024,2.2024Z"/><path class="uuid-4801497b-56b1-4be5-888d-abac2b5c206c" d="M71.2901,149.4721c0,1.2164,.9861,2.2024,2.2024,2.2024,1.2164,0,2.2025-.986,2.2025-2.2024s-.9861-2.2024-2.2025-2.2024c-1.2163,0-2.2024,.986-2.2024,2.2024Z"/><path class="uuid-4801497b-56b1-4be5-888d-abac2b5c206c" d="M71.2901,134.7451c0,1.2164,.9861,2.2024,2.2024,2.2024,1.2164,0,2.2025-.986,2.2025-2.2024,0-1.2163-.9861-2.2024-2.2025-2.2024-1.2163,0-2.2024,.9861-2.2024,2.2024Z"/><path class="uuid-4801497b-56b1-4be5-888d-abac2b5c206c" d="M71.2901,120.0181c0,1.2164,.9861,2.2025,2.2024,2.2025,1.2164,0,2.2025-.9861,2.2025-2.2025,0-1.2163-.9861-2.2024-2.2025-2.2024-1.2163,0-2.2024,.9861-2.2024,2.2024Z"/><path class="uuid-4801497b-56b1-4be5-888d-abac2b5c206c" d="M71.2901,105.2912c0,1.2163,.9861,2.2024,2.2024,2.2024,1.2164,0,2.2025-.9861,2.2025-2.2024,0-1.2164-.9861-2.2025-2.2025-2.2025-1.2163,0-2.2024,.9861-2.2024,2.2025Z"/><path class="uuid-4801497b-56b1-4be5-888d-abac2b5c206c" d="M71.2901,90.5642c0,1.2164,.9861,2.2024,2.2024,2.2024,1.2164,0,2.2025-.986,2.2025-2.2024s-.9861-2.2024-2.2025-2.2024c-1.2163,0-2.2024,.986-2.2024,2.2024Z"/></g></g><g><g><circle class="uuid-4801497b-56b1-4be5-888d-abac2b5c206c" cx="61.6108" cy="75.8373" r="2.2024"/><circle class="uuid-4801497b-56b1-4be5-888d-abac2b5c206c" cx="61.6108" cy="61.1103" r="2.2024"/><circle class="uuid-4801497b-56b1-4be5-888d-abac2b5c206c" cx="61.6108" cy="46.3833" r="2.2024"/><path class="uuid-4801497b-56b1-4be5-888d-abac2b5c206c" d="M59.4084,31.6563c0,1.2164,.986,2.2025,2.2024,2.2025s2.2024-.9861,2.2024-2.2025c0-1.2163-.986-2.2024-2.2024-2.2024s-2.2024,.9861-2.2024,2.2024Z"/><path class="uuid-4801497b-56b1-4be5-888d-abac2b5c206c" d="M59.4084,16.9294c0,1.2163,.986,2.2024,2.2024,2.2024s2.2024-.9861,2.2024-2.2024c0-1.2164-.986-2.2025-2.2024-2.2025s-2.2024,.9861-2.2024,2.2025Z"/><circle class="uuid-4801497b-56b1-4be5-888d-abac2b5c206c" cx="61.6108" cy="2.2024" r="2.2024"/><circle class="uuid-4801497b-56b1-4be5-888d-abac2b5c206c" cx="49.7291" cy="75.8373" r="2.2024"/><circle class="uuid-4801497b-56b1-4be5-888d-abac2b5c206c" cx="49.7291" cy="61.1103" r="2.2024"/><circle class="uuid-4801497b-56b1-4be5-888d-abac2b5c206c" cx="49.7291" cy="46.3833" r="2.2024"/><path class="uuid-4801497b-56b1-4be5-888d-abac2b5c206c" d="M47.5267,31.6563c0,1.2164,.9861,2.2025,2.2024,2.2025,1.2164,0,2.2024-.9861,2.2024-2.2025,0-1.2163-.986-2.2024-2.2024-2.2024-1.2163,0-2.2024,.9861-2.2024,2.2024Z"/><path class="uuid-4801497b-56b1-4be5-888d-abac2b5c206c" d="M47.5267,16.9294c0,1.2163,.9861,2.2024,2.2024,2.2024,1.2164,0,2.2024-.9861,2.2024-2.2024,0-1.2164-.986-2.2025-2.2024-2.2025-1.2163,0-2.2024,.9861-2.2024,2.2025Z"/><circle class="uuid-4801497b-56b1-4be5-888d-abac2b5c206c" cx="49.7291" cy="2.2024" r="2.2024"/><path class="uuid-4801497b-56b1-4be5-888d-abac2b5c206c" d="M35.645,75.8373c0,1.2163,.9861,2.2024,2.2025,2.2024,1.2163,0,2.2024-.9861,2.2024-2.2024,0-1.2164-.9861-2.2024-2.2024-2.2024-1.2164,0-2.2025,.986-2.2025,2.2024Z"/><path class="uuid-4801497b-56b1-4be5-888d-abac2b5c206c" d="M35.645,61.1103c0,1.2164,.9861,2.2024,2.2025,2.2024,1.2163,0,2.2024-.986,2.2024-2.2024s-.9861-2.2024-2.2024-2.2024c-1.2164,0-2.2025,.986-2.2025,2.2024Z"/><path class="uuid-4801497b-56b1-4be5-888d-abac2b5c206c" d="M35.645,46.3833c0,1.2164,.9861,2.2024,2.2025,2.2024,1.2163,0,2.2024-.986,2.2024-2.2024,0-1.2163-.9861-2.2024-2.2024-2.2024-1.2164,0-2.2025,.9861-2.2025,2.2024Z"/><path class="uuid-4801497b-56b1-4be5-888d-abac2b5c206c" d="M35.645,31.6563c0,1.2164,.9861,2.2025,2.2025,2.2025,1.2163,0,2.2024-.9861,2.2024-2.2025,0-1.2163-.9861-2.2024-2.2024-2.2024-1.2164,0-2.2025,.9861-2.2025,2.2024Z"/><path class="uuid-4801497b-56b1-4be5-888d-abac2b5c206c" d="M35.645,16.9294c0,1.2163,.9861,2.2024,2.2025,2.2024,1.2163,0,2.2024-.9861,2.2024-2.2024,0-1.2164-.9861-2.2025-2.2024-2.2025-1.2164,0-2.2025,.9861-2.2025,2.2025Z"/><path class="uuid-4801497b-56b1-4be5-888d-abac2b5c206c" d="M35.645,2.2024c0,1.2164,.9861,2.2024,2.2025,2.2024,1.2163,0,2.2024-.986,2.2024-2.2024s-.9861-2.2024-2.2024-2.2024c-1.2164,0-2.2025,.986-2.2025,2.2024Z"/><circle class="uuid-4801497b-56b1-4be5-888d-abac2b5c206c" cx="25.9658" cy="75.8373" r="2.2024"/><circle class="uuid-4801497b-56b1-4be5-888d-abac2b5c206c" cx="25.9658" cy="61.1103" r="2.2024"/><circle class="uuid-4801497b-56b1-4be5-888d-abac2b5c206c" cx="25.9658" cy="46.3833" r="2.2024"/><path class="uuid-4801497b-56b1-4be5-888d-abac2b5c206c" d="M23.7634,31.6563c0,1.2164,.986,2.2025,2.2024,2.2025,1.2163,0,2.2024-.9861,2.2024-2.2025,0-1.2163-.9861-2.2024-2.2024-2.2024-1.2164,0-2.2024,.9861-2.2024,2.2024Z"/><path class="uuid-4801497b-56b1-4be5-888d-abac2b5c206c" d="M23.7634,16.9294c0,1.2163,.986,2.2024,2.2024,2.2024,1.2163,0,2.2024-.9861,2.2024-2.2024,0-1.2164-.9861-2.2025-2.2024-2.2025-1.2164,0-2.2024,.9861-2.2024,2.2025Z"/><circle class="uuid-4801497b-56b1-4be5-888d-abac2b5c206c" cx="25.9658" cy="2.2024" r="2.2024"/><circle class="uuid-4801497b-56b1-4be5-888d-abac2b5c206c" cx="14.0841" cy="75.8373" r="2.2024"/><circle class="uuid-4801497b-56b1-4be5-888d-abac2b5c206c" cx="14.0841" cy="61.1103" r="2.2024"/><circle class="uuid-4801497b-56b1-4be5-888d-abac2b5c206c" cx="14.0841" cy="46.3833" r="2.2024"/><path class="uuid-4801497b-56b1-4be5-888d-abac2b5c206c" d="M11.8817,31.6563c0,1.2164,.9861,2.2025,2.2024,2.2025,1.2164,0,2.2024-.9861,2.2024-2.2025,0-1.2163-.986-2.2024-2.2024-2.2024-1.2163,0-2.2024,.9861-2.2024,2.2024Z"/><path class="uuid-4801497b-56b1-4be5-888d-abac2b5c206c" d="M11.8817,16.9294c0,1.2163,.9861,2.2024,2.2024,2.2024,1.2164,0,2.2024-.9861,2.2024-2.2024,0-1.2164-.986-2.2025-2.2024-2.2025-1.2163,0-2.2024,.9861-2.2024,2.2025Z"/><circle class="uuid-4801497b-56b1-4be5-888d-abac2b5c206c" cx="14.0841" cy="2.2024" r="2.2024"/><path class="uuid-4801497b-56b1-4be5-888d-abac2b5c206c" d="M0,75.8373c0,1.2163,.9861,2.2024,2.2024,2.2024,1.2164,0,2.2025-.9861,2.2025-2.2024,0-1.2164-.9861-2.2024-2.2025-2.2024-1.2163,0-2.2024,.986-2.2024,2.2024Z"/><path class="uuid-4801497b-56b1-4be5-888d-abac2b5c206c" d="M0,61.1103c0,1.2164,.9861,2.2024,2.2024,2.2024,1.2164,0,2.2025-.986,2.2025-2.2024s-.9861-2.2024-2.2025-2.2024c-1.2163,0-2.2024,.986-2.2024,2.2024Z"/><path class="uuid-4801497b-56b1-4be5-888d-abac2b5c206c" d="M0,46.3833c0,1.2164,.9861,2.2024,2.2024,2.2024,1.2164,0,2.2025-.986,2.2025-2.2024,0-1.2163-.9861-2.2024-2.2025-2.2024-1.2163,0-2.2024,.9861-2.2024,2.2024Z"/><path class="uuid-4801497b-56b1-4be5-888d-abac2b5c206c" d="M0,31.6563c0,1.2164,.9861,2.2025,2.2024,2.2025,1.2164,0,2.2025-.9861,2.2025-2.2025,0-1.2163-.9861-2.2024-2.2025-2.2024-1.2163,0-2.2024,.9861-2.2024,2.2024Z"/><path class="uuid-4801497b-56b1-4be5-888d-abac2b5c206c" d="M0,16.9294c0,1.2163,.9861,2.2024,2.2024,2.2024,1.2164,0,2.2025-.9861,2.2025-2.2024,0-1.2164-.9861-2.2025-2.2025-2.2025-1.2163,0-2.2024,.9861-2.2024,2.2025Z"/><path class="uuid-4801497b-56b1-4be5-888d-abac2b5c206c" d="M0,2.2024c0,1.2164,.9861,2.2024,2.2024,2.2024,1.2164,0,2.2025-.986,2.2025-2.2024S3.4188,0,2.2024,0C.9861,0,0,.986,0,2.2024Z"/></g><g><circle class="uuid-4801497b-56b1-4be5-888d-abac2b5c206c" cx="132.9009" cy="75.8373" r="2.2024"/><circle class="uuid-4801497b-56b1-4be5-888d-abac2b5c206c" cx="132.9009" cy="61.1103" r="2.2024"/><circle class="uuid-4801497b-56b1-4be5-888d-abac2b5c206c" cx="132.9009" cy="46.3833" r="2.2024"/><path class="uuid-4801497b-56b1-4be5-888d-abac2b5c206c" d="M130.6985,31.6563c0,1.2164,.986,2.2025,2.2024,2.2025s2.2024-.9861,2.2024-2.2025c0-1.2163-.986-2.2024-2.2024-2.2024s-2.2024,.9861-2.2024,2.2024Z"/><path class="uuid-4801497b-56b1-4be5-888d-abac2b5c206c" d="M130.6985,16.9294c0,1.2163,.986,2.2024,2.2024,2.2024s2.2024-.9861,2.2024-2.2024c0-1.2164-.986-2.2025-2.2024-2.2025s-2.2024,.9861-2.2024,2.2025Z"/><circle class="uuid-4801497b-56b1-4be5-888d-abac2b5c206c" cx="132.9009" cy="2.2024" r="2.2024"/><circle class="uuid-4801497b-56b1-4be5-888d-abac2b5c206c" cx="121.0192" cy="75.8373" r="2.2024"/><circle class="uuid-4801497b-56b1-4be5-888d-abac2b5c206c" cx="121.0192" cy="61.1103" r="2.2024"/><circle class="uuid-4801497b-56b1-4be5-888d-abac2b5c206c" cx="121.0192" cy="46.3833" r="2.2024"/><path class="uuid-4801497b-56b1-4be5-888d-abac2b5c206c" d="M118.8168,31.6563c0,1.2164,.9861,2.2025,2.2024,2.2025,1.2164,0,2.2024-.9861,2.2024-2.2025,0-1.2163-.986-2.2024-2.2024-2.2024-1.2163,0-2.2024,.9861-2.2024,2.2024Z"/><path class="uuid-4801497b-56b1-4be5-888d-abac2b5c206c" d="M118.8168,16.9294c0,1.2163,.9861,2.2024,2.2024,2.2024,1.2164,0,2.2024-.9861,2.2024-2.2024,0-1.2164-.986-2.2025-2.2024-2.2025-1.2163,0-2.2024,.9861-2.2024,2.2025Z"/><circle class="uuid-4801497b-56b1-4be5-888d-abac2b5c206c" cx="121.0192" cy="2.2024" r="2.2024"/><path class="uuid-4801497b-56b1-4be5-888d-abac2b5c206c" d="M106.9351,75.8373c0,1.2163,.9861,2.2024,2.2025,2.2024,1.2163,0,2.2024-.9861,2.2024-2.2024,0-1.2164-.9861-2.2024-2.2024-2.2024-1.2164,0-2.2025,.986-2.2025,2.2024Z"/><path class="uuid-4801497b-56b1-4be5-888d-abac2b5c206c" d="M106.9351,61.1103c0,1.2164,.9861,2.2024,2.2025,2.2024,1.2163,0,2.2024-.986,2.2024-2.2024s-.9861-2.2024-2.2024-2.2024c-1.2164,0-2.2025,.986-2.2025,2.2024Z"/><path class="uuid-4801497b-56b1-4be5-888d-abac2b5c206c" d="M106.9351,46.3833c0,1.2164,.9861,2.2024,2.2025,2.2024,1.2163,0,2.2024-.986,2.2024-2.2024,0-1.2163-.9861-2.2024-2.2024-2.2024-1.2164,0-2.2025,.9861-2.2025,2.2024Z"/><path class="uuid-4801497b-56b1-4be5-888d-abac2b5c206c" d="M106.9351,31.6563c0,1.2164,.9861,2.2025,2.2025,2.2025,1.2163,0,2.2024-.9861,2.2024-2.2025,0-1.2163-.9861-2.2024-2.2024-2.2024-1.2164,0-2.2025,.9861-2.2025,2.2024Z"/><path class="uuid-4801497b-56b1-4be5-888d-abac2b5c206c" d="M106.9351,16.9294c0,1.2163,.9861,2.2024,2.2025,2.2024,1.2163,0,2.2024-.9861,2.2024-2.2024,0-1.2164-.9861-2.2025-2.2024-2.2025-1.2164,0-2.2025,.9861-2.2025,2.2025Z"/><path class="uuid-4801497b-56b1-4be5-888d-abac2b5c206c" d="M106.9351,2.2024c0,1.2164,.9861,2.2024,2.2025,2.2024,1.2163,0,2.2024-.986,2.2024-2.2024s-.9861-2.2024-2.2024-2.2024c-1.2164,0-2.2025,.986-2.2025,2.2024Z"/><circle class="uuid-4801497b-56b1-4be5-888d-abac2b5c206c" cx="97.2559" cy="75.8373" r="2.2024"/><circle class="uuid-4801497b-56b1-4be5-888d-abac2b5c206c" cx="97.2559" cy="61.1103" r="2.2024"/><circle class="uuid-4801497b-56b1-4be5-888d-abac2b5c206c" cx="97.2559" cy="46.3833" r="2.2024"/><path class="uuid-4801497b-56b1-4be5-888d-abac2b5c206c" d="M95.0535,31.6563c0,1.2164,.986,2.2025,2.2024,2.2025,1.2163,0,2.2024-.9861,2.2024-2.2025,0-1.2163-.9861-2.2024-2.2024-2.2024-1.2164,0-2.2024,.9861-2.2024,2.2024Z"/><path class="uuid-4801497b-56b1-4be5-888d-abac2b5c206c" d="M95.0535,16.9294c0,1.2163,.986,2.2024,2.2024,2.2024,1.2163,0,2.2024-.9861,2.2024-2.2024,0-1.2164-.9861-2.2025-2.2024-2.2025-1.2164,0-2.2024,.9861-2.2024,2.2025Z"/><circle class="uuid-4801497b-56b1-4be5-888d-abac2b5c206c" cx="97.2559" cy="2.2024" r="2.2024"/><circle class="uuid-4801497b-56b1-4be5-888d-abac2b5c206c" cx="85.3742" cy="75.8373" r="2.2024"/><circle class="uuid-4801497b-56b1-4be5-888d-abac2b5c206c" cx="85.3742" cy="61.1103" r="2.2024"/><circle class="uuid-4801497b-56b1-4be5-888d-abac2b5c206c" cx="85.3742" cy="46.3833" r="2.2024"/><path class="uuid-4801497b-56b1-4be5-888d-abac2b5c206c" d="M83.1718,31.6563c0,1.2164,.9861,2.2025,2.2024,2.2025,1.2164,0,2.2024-.9861,2.2024-2.2025,0-1.2163-.986-2.2024-2.2024-2.2024-1.2163,0-2.2024,.9861-2.2024,2.2024Z"/><path class="uuid-4801497b-56b1-4be5-888d-abac2b5c206c" d="M83.1718,16.9294c0,1.2163,.9861,2.2024,2.2024,2.2024,1.2164,0,2.2024-.9861,2.2024-2.2024,0-1.2164-.986-2.2025-2.2024-2.2025-1.2163,0-2.2024,.9861-2.2024,2.2025Z"/><circle class="uuid-4801497b-56b1-4be5-888d-abac2b5c206c" cx="85.3742" cy="2.2024" r="2.2024"/><path class="uuid-4801497b-56b1-4be5-888d-abac2b5c206c" d="M71.2901,75.8373c0,1.2163,.9861,2.2024,2.2024,2.2024,1.2164,0,2.2025-.9861,2.2025-2.2024,0-1.2164-.9861-2.2024-2.2025-2.2024-1.2163,0-2.2024,.986-2.2024,2.2024Z"/><path class="uuid-4801497b-56b1-4be5-888d-abac2b5c206c" d="M71.2901,61.1103c0,1.2164,.9861,2.2024,2.2024,2.2024,1.2164,0,2.2025-.986,2.2025-2.2024s-.9861-2.2024-2.2025-2.2024c-1.2163,0-2.2024,.986-2.2024,2.2024Z"/><path class="uuid-4801497b-56b1-4be5-888d-abac2b5c206c" d="M71.2901,46.3833c0,1.2164,.9861,2.2024,2.2024,2.2024,1.2164,0,2.2025-.986,2.2025-2.2024,0-1.2163-.9861-2.2024-2.2025-2.2024-1.2163,0-2.2024,.9861-2.2024,2.2024Z"/><path class="uuid-4801497b-56b1-4be5-888d-abac2b5c206c" d="M71.2901,31.6563c0,1.2164,.9861,2.2025,2.2024,2.2025,1.2164,0,2.2025-.9861,2.2025-2.2025,0-1.2163-.9861-2.2024-2.2025-2.2024-1.2163,0-2.2024,.9861-2.2024,2.2024Z"/><path class="uuid-4801497b-56b1-4be5-888d-abac2b5c206c" d="M71.2901,16.9294c0,1.2163,.9861,2.2024,2.2024,2.2024,1.2164,0,2.2025-.9861,2.2025-2.2024,0-1.2164-.9861-2.2025-2.2025-2.2025-1.2163,0-2.2024,.9861-2.2024,2.2025Z"/><path class="uuid-4801497b-56b1-4be5-888d-abac2b5c206c" d="M71.2901,2.2024c0,1.2164,.9861,2.2024,2.2024,2.2024,1.2164,0,2.2025-.986,2.2025-2.2024s-.9861-2.2024-2.2025-2.2024c-1.2163,0-2.2024,.986-2.2024,2.2024Z"/></g></g></svg>