<?xml version="1.0" encoding="UTF-8"?><svg id="uuid-b8a35235-5049-4246-97c5-19349b1c77fa" xmlns="http://www.w3.org/2000/svg" viewBox="0 0 33.87891 10.25391"><defs><style>.uuid-cfe96933-424d-4891-b691-1153aebf74f2{fill:#fff;}</style></defs><path class="uuid-cfe96933-424d-4891-b691-1153aebf74f2" d="M5.76562,8.67188c-.92969,.07031-1.85352,.13672-2.77148,.19922s-1.8418,.12109-2.77148,.17578c-.03906-1.49219-.07031-2.97461-.09375-4.44727S.0625,1.64062,0,.14062c.52344-.00781,1.03906-.02344,1.54688-.04688s1.01953-.05469,1.53516-.09375c-.08594,.57812-.16602,1.1582-.24023,1.74023s-.13086,1.16602-.16992,1.75195c-.03125,.49219-.05664,.98242-.07617,1.4707s-.03711,.97852-.05273,1.4707c.51562,.01562,1.02539,.02344,1.5293,.02344s1.00977,.00781,1.51758,.02344l.17578,2.19141Z"/><path class="uuid-cfe96933-424d-4891-b691-1153aebf74f2" d="M15.07031,4.32422v.18164c0,.05859-.00391,.11914-.01172,.18164-.00781,.10938-.02734,.28906-.05859,.53906s-.07422,.50977-.12891,.7793-.12109,.51758-.19922,.74414-.16406,.37109-.25781,.43359c-.04688,.03125-.20508,.05859-.47461,.08203s-.59766,.04688-.98438,.07031-.80664,.04297-1.25977,.05859-.88477,.0293-1.29492,.04102-.76953,.02148-1.07812,.0293-.51367,.01172-.61523,.01172h-.24023c-.11328,0-.23242-.00195-.35742-.00586s-.24219-.00977-.35156-.01758-.1875-.01953-.23438-.03516c-.10938-.03906-.21875-.10352-.32812-.19336s-.21094-.19141-.30469-.30469-.17773-.23047-.25195-.35156-.12695-.23633-.1582-.3457c-.02344-.08594-.04297-.2168-.05859-.39258s-.02734-.35938-.03516-.55078-.01367-.37695-.01758-.55664-.00586-.31641-.00586-.41016c0-.14844,.00391-.35352,.01172-.61523s.03125-.5293,.07031-.80273,.0957-.5293,.16992-.76758,.18164-.4043,.32227-.49805c.0625-.03906,.17969-.07422,.35156-.10547s.375-.05859,.60938-.08203,.48438-.04102,.75-.05273,.52539-.01953,.7793-.02344,.49023-.00586,.70898-.00586,.39453,.00391,.52734,.01172c.11719,.00781,.28516,.01367,.50391,.01758s.46289,.00977,.73242,.01758,.54883,.02148,.83789,.04102,.55859,.04492,.80859,.07617,.4707,.07227,.66211,.12305,.31836,.11133,.38086,.18164c.10156,.10938,.18359,.27344,.24609,.49219s.11133,.45117,.14648,.69727,.05859,.48828,.07031,.72656,.01758,.43164,.01758,.58008Zm-2.48438,.24609c0-.09375-.00391-.20312-.01172-.32812s-.01953-.25195-.03516-.38086-.03906-.25391-.07031-.375-.07031-.2207-.11719-.29883c-.0625-.10156-.18359-.17969-.36328-.23438s-.37695-.0957-.5918-.12305-.42578-.04492-.63281-.05273-.36133-.01172-.46289-.01172c-.05469,0-.15234,.00195-.29297,.00586s-.28711,.00977-.43945,.01758-.29492,.02148-.42773,.04102-.21875,.04102-.25781,.06445c-.07031,.04688-.125,.11914-.16406,.2168s-.06836,.20508-.08789,.32227-.03125,.23242-.03516,.3457-.00586,.20508-.00586,.27539,.00586,.19727,.01758,.38086,.02734,.37891,.04688,.58594,.04492,.39648,.07617,.56836,.07031,.28125,.11719,.32812c.05469,.0625,.1582,.11328,.31055,.15234s.31641,.07227,.49219,.09961,.3457,.04688,.50977,.05859,.28125,.01758,.35156,.01758c.125,0,.27344-.00391,.44531-.01172s.3457-.02734,.52148-.05859,.3418-.07422,.49805-.12891,.28125-.12891,.375-.22266c.05469-.05469,.09766-.13672,.12891-.24609s.05469-.22656,.07031-.35156,.02539-.24805,.0293-.36914,.00586-.2168,.00586-.28711Z"/><path class="uuid-cfe96933-424d-4891-b691-1153aebf74f2" d="M23.97656,4.81641c0,.32812-.00195,.6543-.00586,.97852s-.00586,.65039-.00586,.97852c-.00781,.17188-.00977,.34766-.00586,.52734s-.00195,.35938-.01758,.53906c-.02344,.17188-.04688,.35352-.07031,.54492s-.0625,.38086-.11719,.56836-.12695,.36328-.2168,.52734-.20898,.30469-.35742,.42188c-.03906,.03125-.11719,.05859-.23438,.08203s-.25391,.04688-.41016,.07031-.32422,.04297-.50391,.05859-.35156,.0293-.51562,.04102-.3125,.02344-.44531,.03516-.22656,.01758-.28125,.01758c-.49219,.01562-.97852,.02734-1.45898,.03516s-.9668,.01172-1.45898,.01172h-.75c-.01562-.13281-.03125-.26953-.04688-.41016s-.02344-.28125-.02344-.42188c0-.15625-.01562-.31836-.04688-.48633s-.06641-.33398-.10547-.49805l.77344,.01172c.04688,0,.17773-.00195,.39258-.00586s.4668-.00781,.75586-.01172,.59961-.01172,.93164-.02344,.63867-.0293,.91992-.05273,.52148-.05078,.7207-.08203,.31055-.06641,.33398-.10547c.0625-.10156,.10156-.2168,.11719-.3457s.02344-.25195,.02344-.36914c0-.0625-.00195-.12695-.00586-.19336s-.00977-.13086-.01758-.19336c-.4375,.03125-.87109,.05859-1.30078,.08203s-.86719,.03516-1.3125,.03516h-.38086c-.15234,0-.30859-.00391-.46875-.01172s-.31641-.01953-.46875-.03516-.27539-.03906-.36914-.07031c-.15625-.04688-.31445-.09961-.47461-.1582s-.31055-.13086-.45117-.2168-.26367-.18945-.36914-.31055-.17773-.26758-.2168-.43945c-.02344-.08594-.03711-.17969-.04102-.28125s-.00586-.19531-.00586-.28125c0-.21875,.01172-.49609,.03516-.83203s.06445-.67773,.12305-1.02539,.13672-.67578,.23438-.98438,.2207-.54102,.36914-.69727c.08594-.09375,.22461-.17578,.41602-.24609s.4082-.12891,.65039-.17578,.49805-.08789,.76758-.12305,.5332-.06055,.79102-.07617,.49414-.02734,.70898-.03516,.38477-.01172,.50977-.01172c.4375,0,.875,.01172,1.3125,.03516l.08203-.75,1.96875,.29297c.00781,.67969,.01367,1.35547,.01758,2.02734s.00586,1.35156,.00586,2.03906Zm-2.07422-.22266c0-.25-.00391-.49414-.01172-.73242s-.01953-.48242-.03516-.73242c-.34375-.07812-.6875-.14062-1.03125-.1875s-.69531-.07031-1.05469-.07031c-.0625,0-.15625,.00391-.28125,.01172s-.25586,.02148-.39258,.04102-.26367,.04688-.38086,.08203-.19922,.07617-.24609,.12305c-.07031,.07812-.11328,.16797-.12891,.26953s-.02344,.20312-.02344,.30469c0,.08594,.00977,.2168,.0293,.39258s.04492,.35742,.07617,.54492,.07031,.36328,.11719,.52734,.09375,.27734,.14062,.33984,.10547,.10938,.17578,.14062,.14648,.05273,.22852,.06445,.16406,.01953,.24609,.02344,.1543,.00586,.2168,.00586c.15625,0,.3457-.00586,.56836-.01758s.44531-.0332,.66797-.06445,.43164-.07617,.62695-.13477,.34375-.13867,.44531-.24023c.01562-.00781,.02734-.04688,.03516-.11719s.01172-.14453,.01172-.22266v-.35156Z"/><path class="uuid-cfe96933-424d-4891-b691-1153aebf74f2" d="M33.87891,4.32422v.18164c0,.05859-.00391,.11914-.01172,.18164-.00781,.10938-.02734,.28906-.05859,.53906s-.07422,.50977-.12891,.7793-.12109,.51758-.19922,.74414-.16406,.37109-.25781,.43359c-.04688,.03125-.20508,.05859-.47461,.08203s-.59766,.04688-.98438,.07031-.80664,.04297-1.25977,.05859-.88477,.0293-1.29492,.04102-.76953,.02148-1.07812,.0293-.51367,.01172-.61523,.01172h-.24023c-.11328,0-.23242-.00195-.35742-.00586s-.24219-.00977-.35156-.01758-.1875-.01953-.23438-.03516c-.10938-.03906-.21875-.10352-.32812-.19336s-.21094-.19141-.30469-.30469-.17773-.23047-.25195-.35156-.12695-.23633-.1582-.3457c-.02344-.08594-.04297-.2168-.05859-.39258s-.02734-.35938-.03516-.55078-.01367-.37695-.01758-.55664-.00586-.31641-.00586-.41016c0-.14844,.00391-.35352,.01172-.61523s.03125-.5293,.07031-.80273,.0957-.5293,.16992-.76758,.18164-.4043,.32227-.49805c.0625-.03906,.17969-.07422,.35156-.10547s.375-.05859,.60938-.08203,.48438-.04102,.75-.05273,.52539-.01953,.7793-.02344,.49023-.00586,.70898-.00586,.39453,.00391,.52734,.01172c.11719,.00781,.28516,.01367,.50391,.01758s.46289,.00977,.73242,.01758,.54883,.02148,.83789,.04102,.55859,.04492,.80859,.07617,.4707,.07227,.66211,.12305,.31836,.11133,.38086,.18164c.10156,.10938,.18359,.27344,.24609,.49219s.11133,.45117,.14648,.69727,.05859,.48828,.07031,.72656,.01758,.43164,.01758,.58008Zm-2.48438,.24609c0-.09375-.00391-.20312-.01172-.32812s-.01953-.25195-.03516-.38086-.03906-.25391-.07031-.375-.07031-.2207-.11719-.29883c-.0625-.10156-.18359-.17969-.36328-.23438s-.37695-.0957-.5918-.12305-.42578-.04492-.63281-.05273-.36133-.01172-.46289-.01172c-.05469,0-.15234,.00195-.29297,.00586s-.28711,.00977-.43945,.01758-.29492,.02148-.42773,.04102-.21875,.04102-.25781,.06445c-.07031,.04688-.125,.11914-.16406,.2168s-.06836,.20508-.08789,.32227-.03125,.23242-.03516,.3457-.00586,.20508-.00586,.27539,.00586,.19727,.01758,.38086,.02734,.37891,.04688,.58594,.04492,.39648,.07617,.56836,.07031,.28125,.11719,.32812c.05469,.0625,.1582,.11328,.31055,.15234s.31641,.07227,.49219,.09961,.3457,.04688,.50977,.05859,.28125,.01758,.35156,.01758c.125,0,.27344-.00391,.44531-.01172s.3457-.02734,.52148-.05859,.3418-.07422,.49805-.12891,.28125-.12891,.375-.22266c.05469-.05469,.09766-.13672,.12891-.24609s.05469-.22656,.07031-.35156,.02539-.24805,.0293-.36914,.00586-.2168,.00586-.28711Z"/></svg>